<svg xmlns="http://www.w3.org/2000/svg" width="221.297" height="54.208" viewBox="0 0 221.297 54.208">
  <g id="DFB_-_Logo" data-name="DFB - Logo" transform="translate(-354.867 -270.984)">
    <path id="Path_36" data-name="Path 36" d="M360.041,273.352h-2.918v16.127H360.1c4.361,0,7.077-2.312,7.077-8.122,0-5.173-2.484-8.005-7.136-8.005m-.232,18.176h-4.942V271.3h5.346c5.319,0,9.222,3.037,9.222,9.972C369.435,288.61,365.211,291.528,359.809,291.528Z" fill="#2f2d2d"/>
    <path id="Path_37" data-name="Path 37" d="M374.171,291.528V271.3h12.224v2.052h-9.971v6.357h5.782v2.053h-5.782v7.717h10.405v2.05" fill="#2f2d2d"/>
    <path id="Path_38" data-name="Path 38" d="M398.591,291.847c-4.827,0-7.312-2.919-7.312-8.526V271.3h2.253v11.965c0,4.362,1.677,6.53,5.173,6.53s4.885-2.109,4.885-6.473V271.3h2.252v11.965c0,5.6-2.4,8.583-7.251,8.583" fill="#2f2d2d"/>
    <path id="Path_39" data-name="Path 39" d="M417.978,273.352v18.177h-2.254V273.352h-5.95V271.3h14.158v2.052" fill="#2f2d2d"/>
    <path id="Path_40" data-name="Path 40" d="M433.41,291.847a9.638,9.638,0,0,1-6.789-2.8l1.5-1.677a7.676,7.676,0,0,0,5.373,2.427c2.689,0,4.367-1.33,4.367-3.466,0-1.88-1.128-2.948-4.828-4.278-4.364-1.561-5.837-2.977-5.837-5.9,0-3.234,2.544-5.17,6.327-5.17a9.057,9.057,0,0,1,6.159,2.166l-1.447,1.764a7.038,7.038,0,0,0-4.854-1.88c-2.774,0-3.93,1.386-3.93,2.977,0,1.678.75,2.63,4.795,4.076,4.48,1.616,5.867,3.118,5.867,6.125,0,3.178-2.484,5.635-6.7,5.635" fill="#2f2d2d"/>
    <path id="Path_41" data-name="Path 41" d="M452.277,291.847c-4.941,0-8.177-4.48-8.177-10.4,0-6.011,3.381-10.459,8.263-10.459a7.42,7.42,0,0,1,6.447,3.237l-1.791,1.356a5.207,5.207,0,0,0-4.712-2.543c-3.469,0-5.954,3.439-5.954,8.35,0,4.944,2.571,8.41,5.981,8.41a5.976,5.976,0,0,0,5-2.657l1.562,1.36a7.959,7.959,0,0,1-6.619,3.35" fill="#2f2d2d"/>
    <path id="Path_42" data-name="Path 42" d="M475.713,291.528v-9.535H465.657v9.535H463.4V271.3h2.254v8.642h10.056V271.3h2.254v20.229" fill="#2f2d2d"/>
    <path id="Path_43" data-name="Path 43" d="M483.572,291.528V271.3H495.8v2.052h-9.972v6.357h5.782v2.053h-5.782v7.717H496.23v2.05" fill="#2f2d2d"/>
    <path id="Path_44" data-name="Path 44" d="M508.742,273.352h-5.664v7.542h5.373c3.008,0,4.424-1.241,4.424-3.785,0-2.486-1.443-3.757-4.133-3.757m1.619,9.392,4.451,8.784h-2.6l-4.334-8.609h-4.8v8.609h-2.252V271.3h8c3.555,0,6.3,1.821,6.3,5.724A5.527,5.527,0,0,1,510.361,282.744Z" fill="#2f2d2d"/>
    <path id="Path_45" data-name="Path 45" d="M357.123,306.7V313.4h5.548v2.053h-5.548v9.419h-2.255V304.646h11.878V306.7" fill="#2f2d2d"/>
    <path id="Path_46" data-name="Path 46" d="M377.292,325.192c-4.826,0-7.312-2.919-7.312-8.524V304.646h2.255v11.967c0,4.361,1.675,6.527,5.173,6.527s4.884-2.109,4.884-6.472V304.646h2.253v11.967c0,5.6-2.4,8.579-7.253,8.579" fill="#2f2d2d"/>
    <path id="Path_47" data-name="Path 47" d="M394.862,325.192a9.635,9.635,0,0,1-6.79-2.8l1.5-1.678a7.665,7.665,0,0,0,5.373,2.427c2.689,0,4.364-1.33,4.364-3.468,0-1.877-1.125-2.946-4.823-4.276-4.366-1.562-5.839-2.978-5.839-5.9,0-3.236,2.54-5.173,6.325-5.173a9.064,9.064,0,0,1,6.16,2.171l-1.448,1.758a7.05,7.05,0,0,0-4.853-1.877c-2.773,0-3.929,1.39-3.929,2.978,0,1.675.749,2.629,4.8,4.073,4.48,1.619,5.866,3.123,5.866,6.129,0,3.179-2.486,5.633-6.7,5.633" fill="#2f2d2d"/>
    <path id="Path_48" data-name="Path 48" d="M412.4,325.192a9.647,9.647,0,0,1-6.794-2.8l1.507-1.678a7.67,7.67,0,0,0,5.373,2.427c2.687,0,4.363-1.33,4.363-3.468,0-1.877-1.128-2.946-4.826-4.276-4.365-1.562-5.838-2.978-5.838-5.9,0-3.236,2.545-5.173,6.33-5.173a9.048,9.048,0,0,1,6.154,2.171l-1.444,1.758a7.049,7.049,0,0,0-4.854-1.877c-2.775,0-3.934,1.39-3.934,2.978,0,1.675.753,2.629,4.8,4.073,4.478,1.619,5.866,3.123,5.866,6.129,0,3.179-2.486,5.633-6.705,5.633" fill="#2f2d2d"/>
    <path id="Path_49" data-name="Path 49" d="M431.651,315.022h-5.03v7.8h5.144c3.034,0,4.19-1.506,4.19-3.816,0-2.543-1.677-3.986-4.3-3.986m.027-8.325h-5.057V313H431.5c2.515,0,3.5-1.445,3.5-3.207C435,307.939,433.931,306.7,431.678,306.7Zm-.059,18.177h-7.25V304.646h7.4c3.207,0,5.491,1.59,5.491,5.056a4.1,4.1,0,0,1-2.921,4.132,4.829,4.829,0,0,1,3.874,5.058C438.209,322.881,435.867,324.874,431.619,324.874Z" fill="#2f2d2d"/>
    <path id="Path_50" data-name="Path 50" d="M450.573,311.032c-.432-1.33-1.036-3.147-1.239-3.987-.2.807-.781,2.631-1.274,4.044l-2.224,6.589H452.8l-2.23-6.646m4.657,13.842-1.737-5.146h-8.35l-1.764,5.146h-2.312l7.023-20.228h2.483l7.023,20.228Z" fill="#2f2d2d"/>
    <path id="Path_51" data-name="Path 51" d="M461.787,324.874V304.646h2.253v18.179h10v2.05" fill="#2f2d2d"/>
    <path id="Path_52" data-name="Path 52" d="M477.248,324.874V304.646H479.5v18.179h10v2.05" fill="#2f2d2d"/>
    <line id="Line_4" data-name="Line 4" x2="6.357" transform="translate(489.5 314.314)" fill="none" stroke="#3b3b3b" stroke-width="3.389"/>
    <path id="Path_53" data-name="Path 53" d="M510.449,315.022h-5.023v7.8h5.14c3.036,0,4.192-1.506,4.192-3.816,0-2.543-1.678-3.986-4.309-3.986m.031-8.325h-5.054V313h4.881c2.513,0,3.5-1.445,3.5-3.207C513.8,307.939,512.734,306.7,510.48,306.7Zm-.056,18.177H503.17V304.646h7.4c3.209,0,5.491,1.59,5.491,5.056a4.092,4.092,0,0,1-2.918,4.132,4.831,4.831,0,0,1,3.873,5.058C517.012,322.881,514.668,324.874,510.424,324.874Z" fill="#2f2d2d"/>
    <path id="Path_54" data-name="Path 54" d="M528.715,325.192c-4.824,0-7.313-2.919-7.313-8.524V304.646h2.256v11.967c0,4.361,1.676,6.527,5.174,6.527s4.881-2.109,4.881-6.472V304.646h2.256v11.967c0,5.6-2.4,8.579-7.254,8.579" fill="#2f2d2d"/>
    <path id="Path_55" data-name="Path 55" d="M553.883,324.874l-8.842-13.842c-.434-.692-1.184-2.022-1.445-2.541v16.383h-2.164V304.646h2.193l8.758,14.1c.431.692,1.183,2.021,1.441,2.544V304.646h2.17v20.228" fill="#2f2d2d"/>
    <path id="Path_56" data-name="Path 56" d="M566.771,306.7h-2.916v16.127h2.975c4.363,0,7.08-2.31,7.08-8.121,0-5.174-2.484-8.006-7.139-8.006m-.23,18.177H561.6V304.646h5.345c5.319,0,9.219,3.034,9.219,9.97C576.164,321.955,571.947,324.874,566.541,324.874Z" fill="#2f2d2d"/>
  </g>
</svg>
