<?xml version="1.0" encoding="utf-8"?>
<!-- Generator: Adobe Illustrator 24.1.2, SVG Export Plug-In . SVG Version: 6.00 Build 0)  -->
<svg version="1.1" id="Layer_1" xmlns="http://www.w3.org/2000/svg" xmlns:xlink="http://www.w3.org/1999/xlink" x="0px" y="0px"
	 viewBox="0 0 44 48.1" style="enable-background:new 0 0 44 48.1;" xml:space="preserve">
<style type="text/css">
	.st0{fill:#DC7F17;stroke:#DC7F17;stroke-width:0.5;stroke-miterlimit:10;}
</style>
<g id="Layer_2_1_">
	<g id="Layer_1-2">
		<g id="Layer_2-2">
			<g id="Layer_1-2-2">
				<path class="st0" d="M26.9,32.2c-1.3,0-2.3-1-2.3-2.2c0-0.9,0.5-1.7,1.3-2.1l3.5-1.6v-3.9c0-1.3,1-2.3,2.3-2.3c0,0,0,0,0,0
					c0.1,0,0.2,0.1,0.2,0.2s-0.1,0.2-0.2,0.2c-1,0-1.8,0.8-1.8,1.8v0l0,0v4c0,0.1-0.1,0.2-0.1,0.2l-3.7,1.7
					c-0.9,0.4-1.3,1.5-0.8,2.4c0.4,0.9,1.5,1.2,2.3,0.9l4-1.9c0.1-0.1,0.3,0,0.3,0.1c0.1,0.1,0,0.3-0.1,0.3l0,0l-4,1.9
					C27.6,32.1,27.2,32.2,26.9,32.2z"/>
				<path class="st0" d="M36.6,9.3c-2.7,0-4.8,2.2-4.8,4.8S34,19,36.6,19s4.8-2.2,4.8-4.8l0,0l0,0C41.5,11.5,39.3,9.3,36.6,9.3z
					 M36.6,18.5c-2.4,0-4.3-1.9-4.3-4.3s1.9-4.3,4.3-4.3s4.3,1.9,4.3,4.3l0,0l0,0C41,16.6,39,18.5,36.6,18.5z"/>
				<path class="st0" d="M33.8,47.8c-1.3,0-2.3-1-2.3-2.3l0,0V24.3c0-0.1,0.1-0.2,0.2-0.2s0.2,0.1,0.2,0.2v21.2c0,1,0.8,1.8,1.7,1.8
					c0,0,0,0,0,0H34c0.9-0.1,1.6-0.9,1.6-1.9V33.5c0-0.6,0.4-1,1-1s1,0.4,1,1v12c0,1,0.8,1.8,1.8,1.8c0,0,0,0,0,0c0.1,0,0.2,0,0.3,0
					c0.9-0.2,1.5-1,1.5-1.9V35.1c0-0.1,0.1-0.2,0.2-0.2s0.2,0.1,0.2,0.2v10.4c0,1.1-0.8,2.1-1.9,2.4c-1.2,0.2-2.4-0.6-2.6-1.9
					c0,0,0,0,0,0c0-0.1,0-0.3,0-0.4v-12c0.1-0.3-0.1-0.6-0.4-0.6c0,0,0,0,0,0c-0.3-0.1-0.6,0.1-0.6,0.3c0,0,0,0,0,0
					c0,0.1,0,0.2,0,0.3v11.9c0,1.2-0.9,2.2-2.1,2.4L33.8,47.8z"/>
				<path class="st0" d="M41.5,20.5h-9.7c-0.1,0-0.2-0.1-0.2-0.2s0.1-0.2,0.2-0.2h9.7c0.1,0,0.2,0.1,0.2,0.2S41.6,20.5,41.5,20.5
					L41.5,20.5z"/>
				<path class="st0" d="M41.5,35.3c-1.3,0-2.3-1-2.3-2.3c0,0,0,0,0,0v-8.7c0-0.1,0.1-0.2,0.2-0.2s0.2,0.1,0.2,0.2V33
					c0,1,0.8,1.8,1.8,1.8s1.8-0.8,1.8-1.8V22.3c0-1-0.8-1.8-1.8-1.8l0,0l0,0c-0.1,0-0.2-0.1-0.2-0.2s0.1-0.2,0.2-0.2
					c1.3,0,2.3,1,2.3,2.3l0,0V33C43.8,34.3,42.8,35.3,41.5,35.3L41.5,35.3z"/>
				<path class="st0" d="M17.3,32.2c1.3,0,2.3-1,2.3-2.2c0-0.9-0.5-1.7-1.3-2.1l-3.5-1.6v-3.9c0-1.3-1-2.3-2.3-2.3c0,0,0,0,0,0
					c-0.1,0-0.2,0.1-0.2,0.2s0.1,0.2,0.2,0.2c1,0,1.8,0.8,1.8,1.8v0l0,0v4c0,0.1,0.1,0.2,0.1,0.2l3.7,1.7c0.9,0.4,1.3,1.5,0.8,2.4
					c-0.4,0.9-1.5,1.2-2.3,0.9l-4-1.9c-0.1-0.1-0.3,0-0.3,0.1c-0.1,0.1,0,0.3,0.1,0.3l0,0l4,1.9C16.6,32.1,17,32.2,17.3,32.2z"/>
				<path class="st0" d="M7.6,9.3c2.7,0,4.8,2.2,4.8,4.8S10.2,19,7.6,19s-4.8-2.2-4.8-4.8l0,0l0,0C2.7,11.5,4.9,9.3,7.6,9.3z
					 M7.6,18.5c2.4,0,4.3-1.9,4.3-4.3S10,9.8,7.6,9.8s-4.3,1.9-4.3,4.3l0,0l0,0C3.2,16.6,5.2,18.5,7.6,18.5z"/>
				<path class="st0" d="M10.4,47.8c1.3,0,2.3-1,2.3-2.3l0,0V24.3c0-0.1-0.1-0.2-0.2-0.2s-0.2,0.1-0.2,0.2v21.2c0,1-0.8,1.8-1.7,1.8
					c0,0,0,0,0,0h-0.2c-0.9-0.1-1.6-0.9-1.6-1.9V33.5c0-0.6-0.4-1-1-1s-1,0.4-1,1v12c0,1-0.8,1.8-1.8,1.8c0,0,0,0,0,0
					c-0.1,0-0.2,0-0.3,0c-0.9-0.2-1.5-1-1.5-1.9V35c0-0.1-0.1-0.2-0.2-0.2S2.5,34.9,2.5,35v10.4c0,1.1,0.8,2.1,1.9,2.4
					C5.6,48,6.8,47.2,7,45.9c0,0,0,0,0,0c0-0.1,0-0.3,0-0.4v-12C7,33.2,7.1,33,7.4,32.9c0,0,0,0,0,0C7.7,32.8,8,33,8.1,33.2
					c0,0,0,0,0,0c0,0.1,0,0.2,0,0.3v11.9c0,1.2,0.9,2.2,2.1,2.4L10.4,47.8z"/>
				<path class="st0" d="M2.7,20.5h9.7c0.1,0,0.2-0.1,0.2-0.2S12.6,20,12.4,20H2.8c-0.1,0-0.2,0.1-0.2,0.2S2.6,20.5,2.7,20.5
					L2.7,20.5z"/>
				<path class="st0" d="M2.7,35.3C4,35.3,5,34.3,5,33c0,0,0,0,0,0v-8.7C5,24.1,4.9,24,4.8,24s-0.2,0.1-0.2,0.2V33
					c0,1-0.8,1.8-1.8,1.8S0.9,34,0.9,33V22.3c0-1,0.8-1.8,1.8-1.8l0,0l0,0c0.1,0,0.2-0.1,0.2-0.2S2.9,20,2.7,20
					c-1.3,0-2.3,1-2.3,2.3l0,0V33C0.4,34.2,1.5,35.3,2.7,35.3L2.7,35.3z"/>
				<path class="st0" d="M28.9,0.2H15.1c-0.5,0-0.9,0.4-0.9,0.9c0,0,0,0,0,0v10.1c0,0.5,0.4,0.9,0.8,0.9c0,0,0,0,0,0h1.6v2.8
					c0,0.1,0.1,0.3,0.3,0.2c0.1,0,0.1,0,0.2-0.1l2.9-2.9h3.8l2.9,2.9c0,0,0.1,0.1,0.2,0.1h0.1c0.1,0,0.2-0.1,0.2-0.2v-2.8h1.6
					c0.5,0,0.9-0.4,0.9-0.9V1.1C29.8,0.6,29.4,0.3,28.9,0.2z M29.3,11.2c0,0.2-0.2,0.4-0.4,0.4H27c-0.1,0-0.2,0.1-0.2,0.2v2.4
					l-2.6-2.6c-0.1,0-0.1-0.1-0.2-0.1h-4c-0.1,0-0.1,0-0.2,0.1l-2.6,2.6v-2.4c0-0.1-0.1-0.2-0.2-0.2h-1.9c-0.2,0-0.4-0.2-0.4-0.4
					V1.1c0-0.2,0.1-0.4,0.3-0.4c0,0,0,0,0,0h13.9c0.2,0,0.4,0.2,0.4,0.4l0,0V11.2z"/>
			</g>
		</g>
	</g>
</g>
</svg>
