<svg xmlns="http://www.w3.org/2000/svg" viewBox="0 0 61.87 47.58"><defs><style>.cls-1{fill:#dc7f17;}</style></defs><g id="Layer_2" data-name="Layer 2"><g id="Layer_1-2" data-name="Layer 1"><path class="cls-1" d="M22.28,10.18a4.79,4.79,0,0,0-1.73,3.7,4.52,4.52,0,0,0,.06.74c0,.11,0,.22.07.33a4.72,4.72,0,0,0,1.6,2.62V16.9a4.33,4.33,0,0,1,0-6,5,5,0,0,1,.5-.43V9.81A3.59,3.59,0,0,0,22.28,10.18Zm.5-.37v.61a4.27,4.27,0,0,1,2.5-.87V9A4.76,4.76,0,0,0,22.78,9.81Zm3-.75-.39,0h-.11a4.76,4.76,0,0,0-2.5.77,3.59,3.59,0,0,0-.5.37,4.79,4.79,0,0,0-1.73,3.7,4.52,4.52,0,0,0,.06.74c0,.11,0,.22.07.33a4.72,4.72,0,0,0,1.6,2.62,3.59,3.59,0,0,0,.5.37,4.76,4.76,0,0,0,2.5.77h.11l.39,0a4.83,4.83,0,0,0,0-9.63Zm0,9.13-.39,0h-.11a4.35,4.35,0,0,1-2.5-.88,3.94,3.94,0,0,1-.5-.43,4.33,4.33,0,0,1,0-6,5,5,0,0,1,.5-.43,4.27,4.27,0,0,1,2.5-.87h.11l.39,0a4.33,4.33,0,0,1,0,8.63Zm-3-8.38v.61a4.27,4.27,0,0,1,2.5-.87V9A4.76,4.76,0,0,0,22.78,9.81Zm0,0v.61a4.27,4.27,0,0,1,2.5-.87V9A4.76,4.76,0,0,0,22.78,9.81Zm0,0a3.59,3.59,0,0,0-.5.37v.67a5,5,0,0,1,.5-.43,4.27,4.27,0,0,1,2.5-.87V9A4.76,4.76,0,0,0,22.78,9.81Zm3-.75-.39,0h-.11a4.76,4.76,0,0,0-2.5.77v.61a4.27,4.27,0,0,1,2.5-.87h.11l.39,0a4.33,4.33,0,0,1,0,8.63v.5a4.83,4.83,0,0,0,0-9.63Z"/><path class="cls-1" d="M20.8,34.75a.25.25,0,0,1-.25.25H20.3a2.3,2.3,0,0,1-2-2.28V22a2.32,2.32,0,0,1,.58-1.52,2.29,2.29,0,0,1,1.71-.77.25.25,0,0,1,.25.25.25.25,0,0,1-.25.25,1.76,1.76,0,0,0-1.71,1.3,1.33,1.33,0,0,0-.08.49V32.71a1.77,1.77,0,0,0,1.54,1.76,1,1,0,0,0,.25,0A.25.25,0,0,1,20.8,34.75Z"/><path class="cls-1" d="M43.24,22A2.29,2.29,0,0,1,41,24.28H30.48v21a2.29,2.29,0,0,1-4.57,0V32.73h-1V45.24a2.29,2.29,0,0,1-4.58,0V23.87a.25.25,0,0,1,.5,0V45.24a1.76,1.76,0,0,0,.65,1.36h0a1.72,1.72,0,0,0,1.13.41,1.79,1.79,0,0,0,1.79-1.78V32.48a.25.25,0,0,1,.25-.25h1.53a.25.25,0,0,1,.25.25V45.24a1.79,1.79,0,0,0,3.57,0V24a.25.25,0,0,1,.25-.25H41a1.79,1.79,0,1,0,0-3.58H20.55A.25.25,0,0,1,20.3,20a.25.25,0,0,1,.25-.25H41A2.3,2.3,0,0,1,43.24,22Z"/><path class="cls-1" d="M45,31.94a2.29,2.29,0,0,1-1-4.37l3.54-1.63V22.05a2.3,2.3,0,0,1,2.29-2.29.25.25,0,0,1,0,.5,1.79,1.79,0,0,0-1.79,1.79V26.1a.24.24,0,0,1-.14.23L44.28,28a1.79,1.79,0,0,0,1.5,3.25l4-1.86a.25.25,0,0,1,.21.46l-4,1.85A2.34,2.34,0,0,1,45,31.94Z"/><path class="cls-1" d="M54.74,9.09a4.84,4.84,0,1,0,4.84,4.84A4.84,4.84,0,0,0,54.74,9.09Zm0,9.18a4.34,4.34,0,1,1,4.34-4.34A4.34,4.34,0,0,1,54.74,18.27Z"/><path class="cls-1" d="M51.93,47.58a2.28,2.28,0,0,1-2.28-2.29V24.08a.25.25,0,1,1,.5,0V45.29a1.79,1.79,0,0,0,2,1.78,1.87,1.87,0,0,0,1.61-1.89V33.3a1,1,0,1,1,2,0v12a1.8,1.8,0,0,0,2.09,1.77,1.87,1.87,0,0,0,1.48-1.88V34.81a.25.25,0,0,1,.25-.25.25.25,0,0,1,.25.25V45.18a2.37,2.37,0,0,1-1.9,2.37,2.28,2.28,0,0,1-2.67-2.26v-12a.52.52,0,1,0-1,0V45.18a2.39,2.39,0,0,1-2.06,2.39Z"/><path class="cls-1" d="M59.58,20.26H49.9a.25.25,0,0,1,0-.5h9.68a.25.25,0,0,1,0,.5Z"/><path class="cls-1" d="M59.58,35.06a2.3,2.3,0,0,1-2.29-2.29V24.05a.25.25,0,0,1,.25-.25.25.25,0,0,1,.25.25v8.72a1.79,1.79,0,1,0,3.58,0V22.05a1.79,1.79,0,0,0-1.79-1.79.25.25,0,0,1,0-.5,2.29,2.29,0,0,1,2.29,2.29V32.77A2.29,2.29,0,0,1,59.58,35.06Z"/><path class="cls-1" d="M47,0H33.16a.87.87,0,0,0-.87.86V10.94a.87.87,0,0,0,.87.87H34.8v2.76a.25.25,0,0,0,.15.23.25.25,0,0,0,.27-.05l2.94-2.94H42l2.94,2.94a.24.24,0,0,0,.18.07l.09,0a.25.25,0,0,0,.16-.23V11.81H47a.87.87,0,0,0,.86-.87V.86A.87.87,0,0,0,47,0Zm.36,10.94a.37.37,0,0,1-.36.37H45.09a.25.25,0,0,0-.25.25V14l-2.59-2.59a.24.24,0,0,0-.18-.07h-4a.24.24,0,0,0-.18.07L35.3,14V11.56a.25.25,0,0,0-.25-.25H33.16a.37.37,0,0,1-.37-.37V.86A.36.36,0,0,1,33.16.5H47a.36.36,0,0,1,.36.36Z"/><path class="cls-1" d="M18.76,31.39v.5H2.22A.25.25,0,0,1,2,31.64V3.32a.25.25,0,0,1,.25-.25.25.25,0,0,1,.25.25V31.39Z"/><rect class="cls-1" x="20.3" y="31.39" width="0.5" height="0.5"/><path class="cls-1" d="M5,45.68A1.49,1.49,0,0,1,3.5,44.19V31.9a.25.25,0,0,1,.25-.25A.25.25,0,0,1,4,31.9V44.19a1,1,0,1,0,2,0V31.9a.25.25,0,0,1,.5,0V44.19A1.49,1.49,0,0,1,5,45.68Z"/><path class="cls-1" d="M25.78,3.32V9.56l-.39,0h-.11V3.32a.25.25,0,0,1,.5,0Z"/><path class="cls-1" d="M25.78,18.19v2h-.5v-2h.11Z"/><path class="cls-1" d="M24.25,45.9v0a1.49,1.49,0,0,1-1.48,1.49,1.47,1.47,0,0,1-1.31-.81,1.72,1.72,0,0,0,1.13.41A1.79,1.79,0,0,0,24.25,45.9Z"/><path class="cls-1" d="M27.5.6H.25A.25.25,0,0,0,0,.85V3.32a.25.25,0,0,0,.25.25H2V3.32a.25.25,0,0,1,.25-.25H.5v-2H27.25v2h-25a.25.25,0,0,1,.25.25v.25h25a.25.25,0,0,0,.25-.25V.85A.25.25,0,0,0,27.5.6ZM2.22,3.07a.25.25,0,0,1,.25.25v.25H25.28V3.32a.25.25,0,0,1,.25-.25Zm0,0a.25.25,0,0,1,.25.25v.25H25.28V3.32a.25.25,0,0,1,.25-.25Zm0,0a.25.25,0,0,1,.25.25v.25H25.28V3.32a.25.25,0,0,1,.25-.25ZM27.5.6H.25A.25.25,0,0,0,0,.85V3.32a.25.25,0,0,0,.25.25H27.5a.25.25,0,0,0,.25-.25V.85A.25.25,0,0,0,27.5.6Zm-.25,2.47H.5v-2H27.25Zm-25,0a.25.25,0,0,1,.25.25v.25H25.28V3.32a.25.25,0,0,1,.25-.25Zm0,0a.25.25,0,0,1,.25.25v.25H25.28V3.32a.25.25,0,0,1,.25-.25Zm0,0a.25.25,0,0,1,.25.25v.25H25.28V3.32a.25.25,0,0,1,.25-.25Z"/><path class="cls-1" d="M22.53,6.07H5.22A.25.25,0,0,0,5,6.32V28.64a.25.25,0,0,0,.25.25h13v-.5H5.47V6.57H22.28v4.28a5,5,0,0,1,.5-.43V6.32A.25.25,0,0,0,22.53,6.07ZM22.28,16.9v3.3h.5V17.33A3.94,3.94,0,0,1,22.28,16.9Zm.25-10.83H5.22A.25.25,0,0,0,5,6.32V28.64a.25.25,0,0,0,.25.25H18.76v-.5H5.47V6.57H22.28v4.28a5,5,0,0,1,.5-.43V6.32A.25.25,0,0,0,22.53,6.07ZM20.3,28.39v.5h.5v-.5Z"/><path class="cls-1" d="M10.71,22.72a1.71,1.71,0,0,0-.25,3.41l.25,0,.25,0a1.71,1.71,0,0,0-.25-3.41Zm0,2.93a1.22,1.22,0,1,1,1.22-1.21A1.22,1.22,0,0,1,10.71,25.65Z"/><path class="cls-1" d="M11,25.9V27a.25.25,0,0,1-.25.25.25.25,0,0,1-.25-.25V25.9a.25.25,0,0,1,.25-.25A.26.26,0,0,1,11,25.9Z"/><path class="cls-1" d="M15,18.74a1.72,1.72,0,0,0-.25,3.42v-.23a.25.25,0,0,1,.25-.25,1.22,1.22,0,0,1,0-2.44,1.22,1.22,0,0,1,0,2.44.26.26,0,0,1,.25.25v.23A1.72,1.72,0,0,0,15,18.74Zm0,0a1.72,1.72,0,0,0-.25,3.42l.25,0,.25,0A1.72,1.72,0,0,0,15,18.74Zm0,2.94a1.22,1.22,0,0,1,0-2.44,1.22,1.22,0,0,1,0,2.44Zm0-2.94a1.72,1.72,0,0,0-.25,3.42v-.23a.25.25,0,0,1,.25-.25,1.22,1.22,0,0,1,0-2.44,1.22,1.22,0,0,1,0,2.44.26.26,0,0,1,.25.25v.23A1.72,1.72,0,0,0,15,18.74Z"/><path class="cls-1" d="M15.26,21.93v5.13a.25.25,0,0,1-.25.25.25.25,0,0,1-.25-.25V21.93a.25.25,0,0,1,.25-.25A.26.26,0,0,1,15.26,21.93Z"/></g></g></svg>