<svg xmlns="http://www.w3.org/2000/svg" viewBox="0 0 27.67 37.02"><defs><style>.cls-1,.cls-2{fill:none;stroke:#dc7f17;stroke-linecap:round;stroke-linejoin:round;}.cls-1{stroke-width:0.75px;}.cls-2{stroke-width:0.5px;}</style></defs><g id="Layer_2" data-name="Layer 2"><g id="Layer_1-2" data-name="Layer 1"><g id="Layer_2-2" data-name="Layer 2"><g id="Layer_1-2-2" data-name="Layer 1-2"><polyline class="cls-1" points="7.99 3.87 0.38 3.87 0.38 36.64 27.3 36.64 27.3 3.87 19.68 3.87"/><path class="cls-1" d="M15.61,2.62h0A1.9,1.9,0,0,0,14.3.42a1.77,1.77,0,0,0-2.13,1.31,2.32,2.32,0,0,0-.05.38,1.88,1.88,0,0,0,0,.58h-3A1.16,1.16,0,0,0,8,3.86V6.11a.05.05,0,0,0,.06.06H19.62a.05.05,0,0,0,.06-.06V3.86A1.15,1.15,0,0,0,18.52,2.7H15.68a.05.05,0,0,1-.07-.05Z"/><line class="cls-2" x1="13.24" y1="2.12" x2="14.43" y2="2.12"/><polyline class="cls-1" points="7.99 5.63 2.13 5.63 2.13 34.89 25.54 34.89 25.54 5.63 19.68 5.63"/><polyline class="cls-2" points="10.32 12.06 10.32 13.82 5.64 13.82 5.64 9.14 8.56 9.14"/><polyline class="cls-2" points="6.82 10.31 7.99 12.06 10.9 9.14"/><polyline class="cls-2" points="10.32 20.84 10.32 22.6 5.64 22.6 5.64 17.92 8.56 17.92"/><polyline class="cls-2" points="10.32 29.62 10.32 31.38 5.64 31.38 5.64 26.7 8.56 26.7"/><line class="cls-2" x1="12.07" y1="13.82" x2="23.78" y2="13.82"/><line class="cls-2" x1="12.07" y1="22.6" x2="23.78" y2="22.6"/><line class="cls-2" x1="12.07" y1="31.38" x2="23.78" y2="31.38"/></g></g></g></g></svg>