<svg xmlns="http://www.w3.org/2000/svg" viewBox="0 0 27.42 36.78"><defs><style>.cls-1{fill:none;stroke:#dc7f17;stroke-linecap:round;stroke-linejoin:round;stroke-width:0.5px;}</style></defs><g id="Layer_2" data-name="Layer 2"><g id="Layer_1-2" data-name="Layer 1"><polyline class="cls-1" points="7.86 3.76 0.25 3.76 0.25 36.53 27.17 36.53 27.17 3.76 19.56 3.76"/><path class="cls-1" d="M15.49,2.51v0A1.9,1.9,0,0,0,14.17.31,1.76,1.76,0,0,0,12,2a1.88,1.88,0,0,0,0,.58H9A1.16,1.16,0,0,0,7.86,3.75V6a.06.06,0,0,0,.06.06H19.5A.06.06,0,0,0,19.56,6V3.75A1.16,1.16,0,0,0,18.4,2.59H15.55A.06.06,0,0,1,15.49,2.51Z"/><line class="cls-1" x1="13.12" y1="2.01" x2="14.3" y2="2.01"/><polyline class="cls-1" points="7.86 5.52 2.01 5.52 2.01 34.78 25.41 34.78 25.41 5.52 19.56 5.52"/><polyline class="cls-1" points="10.2 11.95 10.2 13.71 5.52 13.71 5.52 9.03 8.44 9.03"/><polyline class="cls-1" points="6.69 10.2 7.86 11.95 10.78 9.03"/><polyline class="cls-1" points="10.2 20.73 10.2 22.49 5.52 22.49 5.52 17.81 8.44 17.81"/><polyline class="cls-1" points="10.2 29.51 10.2 31.27 5.52 31.27 5.52 26.59 8.44 26.59"/><line class="cls-1" x1="11.95" y1="13.71" x2="23.66" y2="13.71"/><line class="cls-1" x1="11.95" y1="22.49" x2="23.66" y2="22.49"/><line class="cls-1" x1="11.95" y1="31.27" x2="23.66" y2="31.27"/></g></g></svg>