<svg xmlns="http://www.w3.org/2000/svg" viewBox="0 0 135.6 89.32"><defs><style>.cls-1{fill:#dc7f17;}</style></defs><g id="Layer_2" data-name="Layer 2"><g id="Layer_1-2" data-name="Layer 1"><path class="cls-1" d="M65.58,89.32A1.53,1.53,0,0,1,64,87.79v-20A12.66,12.66,0,0,0,51.4,55.19H15.72A12.66,12.66,0,0,0,3.07,67.84v20a1.54,1.54,0,0,1-3.07,0v-20A15.73,15.73,0,0,1,15.71,52.13H51.39A15.73,15.73,0,0,1,67.11,67.84v20A1.53,1.53,0,0,1,65.58,89.32Z"/><path class="cls-1" d="M33.56,45.53A13.51,13.51,0,1,1,47.07,32,13.53,13.53,0,0,1,33.56,45.53Zm0-24A10.45,10.45,0,1,0,44,32,10.46,10.46,0,0,0,33.56,21.57Z"/><path class="cls-1" d="M14.8,89.32a1.53,1.53,0,0,1-1.54-1.53V70a1.54,1.54,0,1,1,3.07,0V87.79A1.53,1.53,0,0,1,14.8,89.32Z"/><path class="cls-1" d="M52.31,89.32a1.53,1.53,0,0,1-1.53-1.53V70a1.54,1.54,0,1,1,3.07,0V87.79A1.53,1.53,0,0,1,52.31,89.32Z"/><path class="cls-1" d="M73.55,54.53a4.3,4.3,0,0,1-1.84-.42,4.24,4.24,0,0,1-2.47-3.89V44.6a9,9,0,0,1-7.49-8.89V9a9,9,0,0,1,9-9h55.81a9,9,0,0,1,9,9V35.71a9,9,0,0,1-9,9H87L76.28,53.54A4.31,4.31,0,0,1,73.55,54.53ZM70.77,3.07a6,6,0,0,0-6,5.95V35.71a6,6,0,0,0,6,5.95,1.54,1.54,0,0,1,1.53,1.53v7a1.24,1.24,0,0,0,2,1L85.43,42a1.56,1.56,0,0,1,1-.35h40.18a6,6,0,0,0,6-5.95V9a6,6,0,0,0-6-5.95Z"/><path class="cls-1" d="M100.69,18.91H75.28a1.54,1.54,0,0,1,0-3.07h25.41a1.54,1.54,0,0,1,0,3.07Z"/><path class="cls-1" d="M122.06,28.76H75.28a1.54,1.54,0,0,1,0-3.07h46.78a1.54,1.54,0,1,1,0,3.07Z"/></g></g></svg>