<svg xmlns="http://www.w3.org/2000/svg" viewBox="0 0 39.22 42.84"><defs><style>.cls-1{fill:none;stroke:#dc7f17;stroke-linecap:round;stroke-linejoin:round;stroke-width:0.85px;}</style></defs><g id="Layer_2" data-name="Layer 2"><g id="Layer_1-2" data-name="Layer 1"><g id="Layer_2-2" data-name="Layer 2"><g id="Layer_1-2-2" data-name="Layer 1-2"><circle class="cls-1" cx="13.35" cy="4.11" r="3.68"/><path class="cls-1" d="M15.82,8.87l1.28.23a2.74,2.74,0,0,1,1.44,1.22l2.69,3.54h4.6v2.93H20l-2.79-2.55"/><line class="cls-1" x1="9.61" y1="13.6" x2="9.56" y2="18.39"/><line class="cls-1" x1="9.61" y1="21.06" x2="7.5" y2="37.83"/><polyline class="cls-1" points="19.34 33.27 17.8 28.13 13.35 25.32 11.38 35.31"/><polyline class="cls-1" points="22.88 33.27 21.68 26.64 17.09 21.66 17.09 14.23 17.09 14.19"/><line class="cls-1" x1="13.35" y1="10.33" x2="15.82" y2="8.87"/><line class="cls-1" x1="10.53" y1="8.9" x2="13.35" y2="10.33"/><line class="cls-1" x1="25.82" y1="33.27" x2="25.82" y2="0.95"/><polyline class="cls-1" points="34.23 3.13 38.45 3.13 36.47 6.49 38.45 9.82 30.04 9.82 30.04 7.64"/><rect class="cls-1" x="25.82" y="0.95" width="8.41" height="6.69"/><polyline class="cls-1" points="38.8 41.8 34.24 40.16 25.61 33.55 25.23 33.27 22.88 33.27 19.34 33.27 14.54 33.27 11.38 35.31 7.5 37.84 0.42 42.41"/><path class="cls-1" d="M10.53,8.9l-1.61.62a3,3,0,0,0-2.37,3l-1.8,3a2,2,0,0,0,.6,2.64l4.26,2.93h.85a1.26,1.26,0,0,0,1.26-1.24v0h0a1.26,1.26,0,0,0-1.24-1.27H9.61l-2.2-2.2,2.2-2.79"/></g></g></g></g></svg>