<svg xmlns="http://www.w3.org/2000/svg" viewBox="0 0 38.87 42.49"><defs><style>.cls-1{fill:none;}.cls-1,.cls-2{stroke:#dc7f17;stroke-linecap:round;stroke-linejoin:round;stroke-width:0.5px;}.cls-2{fill:#fff;}</style></defs><g id="Layer_2" data-name="Layer 2"><g id="Layer_1-2" data-name="Layer 1"><circle class="cls-1" cx="13.17" cy="3.93" r="3.68"/><path class="cls-1" d="M15.64,8.7l1.28.23a2.68,2.68,0,0,1,1.44,1.22l2.69,3.54h4.6v2.92H19.79L17,14.06"/><line class="cls-1" x1="9.43" y1="13.42" x2="9.38" y2="18.22"/><line class="cls-1" x1="9.43" y1="20.89" x2="7.33" y2="37.66"/><polyline class="cls-1" points="19.16 33.1 17.63 27.95 13.17 25.14 11.21 35.14"/><polyline class="cls-1" points="22.7 33.1 21.5 26.46 16.91 21.48 16.91 14.06 16.91 14.01"/><line class="cls-1" x1="13.17" y1="10.16" x2="15.64" y2="8.7"/><line class="cls-1" x1="10.35" y1="8.72" x2="13.17" y2="10.16"/><line class="cls-1" x1="25.65" y1="33.1" x2="25.65" y2="0.78"/><polygon class="cls-1" points="38.27 9.65 29.86 9.65 29.86 2.96 38.27 2.96 36.29 6.31 38.27 9.65"/><rect class="cls-2" x="25.65" y="0.78" width="8.41" height="6.69"/><polyline class="cls-1" points="38.62 41.63 34.07 39.98 25.43 33.38 25.06 33.1 22.7 33.1 19.16 33.1 14.37 33.1 11.21 35.14 7.33 37.66 0.25 42.24"/><path class="cls-1" d="M10.35,8.72l-1.61.62a3,3,0,0,0-2.37,3L4.58,15.37A2,2,0,0,0,5.17,18l4.26,2.93h.85a1.25,1.25,0,0,0,1.26-1.26h0a1.25,1.25,0,0,0-1.26-1.26H9.43L7.24,16.21l2.19-2.79"/></g></g></svg>