<svg xmlns="http://www.w3.org/2000/svg" viewBox="0 0 172.15 142.09"><defs><style>.cls-1,.cls-2{fill:#dc7f17;stroke:#dc7f17;stroke-miterlimit:10;}.cls-2{stroke-width:1.5px;}</style></defs><g id="Layer_2" data-name="Layer 2"><g id="Layer_1-2" data-name="Layer 1"><g id="Layer_2-2" data-name="Layer 2"><g id="_ÎÓÈ_1" data-name=" ÎÓÈ 1"><path class="cls-1" d="M118,116.25A28.33,28.33,0,1,1,146.3,87.92,28.33,28.33,0,0,1,118,116.25Zm0-53.6a25.27,25.27,0,1,0,25.26,25.28h0A25.3,25.3,0,0,0,118,62.65Z"/><path class="cls-1" d="M121.05,141.59h-6.16a7.81,7.81,0,0,1-7.8-7.8v-5.46a41.65,41.65,0,0,1-10-4.14l-3.85,3.86a7.85,7.85,0,0,1-11,0l-4.35-4.36a7.81,7.81,0,0,1,0-11l3.85-3.86a41.65,41.65,0,0,1-4.14-10H72.1A7.81,7.81,0,0,1,64.3,91V84.84A7.81,7.81,0,0,1,72.1,77h5.45a41.65,41.65,0,0,1,4.14-10l-3.85-3.85a7.81,7.81,0,0,1,0-11l4.35-4.44a7.83,7.83,0,0,1,11,0L97,51.61a42.09,42.09,0,0,1,10-4.15V42.05a7.81,7.81,0,0,1,7.8-7.8H121a7.81,7.81,0,0,1,7.8,7.8V47.5a42.09,42.09,0,0,1,10,4.15l3.95-3.9a7.81,7.81,0,0,1,11,0l4.35,4.36a7.81,7.81,0,0,1,0,11L154.25,67a41.65,41.65,0,0,1,4.14,10h5.45a7.81,7.81,0,0,1,7.81,7.8v6.16a7.81,7.81,0,0,1-7.81,7.8h-5.45a41.65,41.65,0,0,1-4.14,10l3.85,3.86a7.81,7.81,0,0,1,0,11l-4.35,4.47a7.83,7.83,0,0,1-11,0l-3.86-3.86a41.65,41.65,0,0,1-10,4.14v5.42a7.81,7.81,0,0,1-7.78,7.84ZM96.84,120.75a1.52,1.52,0,0,1,.8.23A38.53,38.53,0,0,0,109,125.67a1.53,1.53,0,0,1,1.18,1.49v6.59a4.75,4.75,0,0,0,4.74,4.73h6.16a4.73,4.73,0,0,0,4.7-4.73V127.1a1.53,1.53,0,0,1,1.18-1.49,38.53,38.53,0,0,0,11.33-4.69h0l.12-.07a1.54,1.54,0,0,1,1.87.39l4.6,4.6a4.73,4.73,0,0,0,6.69,0h0l4.35-4.36a4.73,4.73,0,0,0,0-6.69h0l-4.6-4.61a1.52,1.52,0,0,1-.37-1.87.64.64,0,0,1,.08-.14,38.81,38.81,0,0,0,4.75-11.26,1.53,1.53,0,0,1,1.44-1.16h6.64A4.75,4.75,0,0,0,168.57,91V84.84a4.74,4.74,0,0,0-4.74-4.74h-6.64a1.53,1.53,0,0,1-1.44-1.17,38.8,38.8,0,0,0-4.69-11.33,1.52,1.52,0,0,1,.22-1.89L156,61a4.74,4.74,0,0,0,0-6.7L151.62,50a4.73,4.73,0,0,0-6.69,0h0l-4.7,4.7a1.54,1.54,0,0,1-1.89.22A38.26,38.26,0,0,0,127,50.19a1.54,1.54,0,0,1-1.26-1.44v-6.7A4.73,4.73,0,0,0,121,37.32h-6.16a4.75,4.75,0,0,0-4.74,4.73v6.7a1.54,1.54,0,0,1-1.18,1.49,38.53,38.53,0,0,0-11.33,4.69,1.55,1.55,0,0,1-1.86-.27L91.06,50a4.74,4.74,0,0,0-6.7,0L80,54.31A4.74,4.74,0,0,0,80,61l4.74,4.74A1.54,1.54,0,0,1,85,67.64,38.26,38.26,0,0,0,80.28,79a1.54,1.54,0,0,1-1.53,1.13H72.1a4.75,4.75,0,0,0-4.74,4.74V91a4.74,4.74,0,0,0,4.73,4.75h6.66a1.54,1.54,0,0,1,1.49,1.18,38.21,38.21,0,0,0,4.69,11.34,1.54,1.54,0,0,1-.32,2l-4.6,4.6a4.73,4.73,0,0,0,0,6.69h0l4.35,4.36a4.74,4.74,0,0,0,6.7,0l4.6-4.6A1.51,1.51,0,0,1,96.84,120.75Z"/><path class="cls-2" d="M39.41,59.82A20.41,20.41,0,1,1,59.82,39.41,20.41,20.41,0,0,1,39.41,59.82Zm0-38.61a18.2,18.2,0,1,0,18.2,18.2A18.2,18.2,0,0,0,39.41,21.21Z"/><path class="cls-2" d="M41.63,78.07H37.19a5.62,5.62,0,0,1-5.62-5.62h0V68.52a29.88,29.88,0,0,1-7.2-3L21.59,68.3a5.63,5.63,0,0,1-7.95,0L10.5,65.18a5.63,5.63,0,0,1,0-8l0,0,2.78-2.78a29.88,29.88,0,0,1-3-7.2H6.37A5.63,5.63,0,0,1,.75,41.63V37.19a5.62,5.62,0,0,1,5.62-5.62H10.3a30.36,30.36,0,0,1,3-7.21l-2.8-2.77a5.65,5.65,0,0,1,0-7.95l3.14-3.14a5.65,5.65,0,0,1,8,0h0l2.77,2.78a30,30,0,0,1,7.21-3V6.37A5.63,5.63,0,0,1,37.19.75h4.44a5.62,5.62,0,0,1,5.62,5.62h0V10.3a30,30,0,0,1,7.21,3l2.77-2.78a5.65,5.65,0,0,1,8,0h0l3.14,3.14a5.63,5.63,0,0,1,0,8l0,0-2.78,2.77a30,30,0,0,1,3,7.21h3.86a5.62,5.62,0,0,1,5.62,5.62h0V41.7a5.62,5.62,0,0,1-5.62,5.55H68.52a30,30,0,0,1-3,7.21l2.78,2.77a5.63,5.63,0,0,1,0,8l0,0-3.14,3.14a5.63,5.63,0,0,1-8,0l0,0-2.77-2.78a30.36,30.36,0,0,1-7.21,3v3.86A5.62,5.62,0,0,1,41.63,78.07Zm-17.44-15a1.06,1.06,0,0,1,.58.17,28.07,28.07,0,0,0,8.16,3.38,1.1,1.1,0,0,1,.82,1v4.79a3.41,3.41,0,0,0,3.41,3.41H41.6A3.41,3.41,0,0,0,45,72.45h0V67.66a1.1,1.1,0,0,1,.85-1.07A27.53,27.53,0,0,0,54,63.21h0l.09-.05a1.1,1.1,0,0,1,1.34.28l3.3,3.31a3.41,3.41,0,0,0,4.82,0h0l3.17-3.13a3.43,3.43,0,0,0,0-4.84l0,0-3.31-3.31a1.09,1.09,0,0,1-.27-1.35.24.24,0,0,1,.06-.11,28,28,0,0,0,3.36-8.13A1.1,1.1,0,0,1,67.66,45h4.79a3.41,3.41,0,0,0,3.41-3.41h0v-4.4a3.41,3.41,0,0,0-3.38-3.44H67.66a1.1,1.1,0,0,1-1.07-.85,27.47,27.47,0,0,0-3.38-8.15,1.1,1.1,0,0,1,.16-1.36L66.75,20a3.42,3.42,0,0,0,0-4.83l-3.13-3.13a3.42,3.42,0,0,0-4.83,0l-3.38,3.38a1.1,1.1,0,0,1-1.36.16,28.07,28.07,0,0,0-8.16-3.38A1.1,1.1,0,0,1,45,11.16V6.37A3.41,3.41,0,0,0,41.63,3H37.19a3.41,3.41,0,0,0-3.44,3.38v4.82a1.1,1.1,0,0,1-.85,1.07,28,28,0,0,0-8.15,3.38,1.1,1.1,0,0,1-1.36-.16L20,12.07a3.42,3.42,0,0,0-4.83,0L12.05,15.2a3.42,3.42,0,0,0,0,4.83l3.38,3.38a1.1,1.1,0,0,1,.18,1.34,27.53,27.53,0,0,0-3.38,8.16,1.1,1.1,0,0,1-1.07.85H6.37A3.41,3.41,0,0,0,3,37.17v4.44A3.41,3.41,0,0,0,6.37,45h4.79a1.1,1.1,0,0,1,1.07.85A28.07,28.07,0,0,0,15.61,54a1.11,1.11,0,0,1-.23,1.43l-3.31,3.29a3.42,3.42,0,0,0,0,4.83l3.13,3.17a3.41,3.41,0,0,0,4.81,0l0,0,3.31-3.31a1.11,1.11,0,0,1,.85-.4Z"/></g></g></g></g></svg>