<svg xmlns="http://www.w3.org/2000/svg" viewBox="0 0 170.89 140.84"><defs><style>.cls-1{fill:#dc7f17;}</style></defs><g id="Layer_2" data-name="Layer 2"><g id="_ÎÓÈ_1" data-name="—ÎÓÈ_1"><path class="cls-1" d="M117.22,115.5a28.33,28.33,0,1,1,28.33-28.33A28.36,28.36,0,0,1,117.22,115.5Zm0-53.6a25.27,25.27,0,1,0,25.26,25.27A25.3,25.3,0,0,0,117.22,61.9Z"/><path class="cls-1" d="M120.3,140.84h-6.16a7.81,7.81,0,0,1-7.8-7.8v-5.46a41.55,41.55,0,0,1-10-4.14l-3.85,3.86a7.84,7.84,0,0,1-11,0l-4.35-4.36a7.81,7.81,0,0,1,0-11l3.85-3.86a41.31,41.31,0,0,1-4.14-10H71.35a7.81,7.81,0,0,1-7.8-7.8V84.09a7.81,7.81,0,0,1,7.8-7.8H76.8a41.55,41.55,0,0,1,4.14-10l-3.85-3.85a7.81,7.81,0,0,1,0-11L81.44,47a7.82,7.82,0,0,1,11,0l3.85,3.86a42,42,0,0,1,10-4.15V41.3a7.81,7.81,0,0,1,7.8-7.8h6.16a7.81,7.81,0,0,1,7.8,7.8v5.45a41.92,41.92,0,0,1,10,4.15L142,47a7.81,7.81,0,0,1,11,0l4.35,4.36a7.81,7.81,0,0,1,0,11l-3.85,3.85a41.55,41.55,0,0,1,4.14,10h5.45a7.81,7.81,0,0,1,7.81,7.8v6.16a7.81,7.81,0,0,1-7.81,7.8h-5.45a41.31,41.31,0,0,1-4.14,10l3.85,3.86a7.81,7.81,0,0,1,0,11L153,127.3a7.82,7.82,0,0,1-11,0l-3.86-3.86a41.65,41.65,0,0,1-10,4.14V133A7.81,7.81,0,0,1,120.3,140.84ZM96.09,120a1.48,1.48,0,0,1,.8.23,38.69,38.69,0,0,0,11.33,4.69,1.53,1.53,0,0,1,1.18,1.49V133a4.74,4.74,0,0,0,4.74,4.73h6.16A4.73,4.73,0,0,0,125,133v-6.65a1.53,1.53,0,0,1,1.18-1.49,38.57,38.57,0,0,0,11.33-4.69h0l.12-.07a1.53,1.53,0,0,1,1.87.39l4.6,4.6a4.73,4.73,0,0,0,6.69,0l4.35-4.36a4.73,4.73,0,0,0,0-6.69l-4.6-4.61a1.52,1.52,0,0,1-.37-1.87.64.64,0,0,1,.08-.14A38.9,38.9,0,0,0,155,96.16,1.53,1.53,0,0,1,156.44,95h6.64a4.74,4.74,0,0,0,4.74-4.73V84.09a4.74,4.74,0,0,0-4.74-4.74h-6.64A1.52,1.52,0,0,1,155,78.18a38.85,38.85,0,0,0-4.69-11.33,1.51,1.51,0,0,1,.22-1.89l4.69-4.7a4.74,4.74,0,0,0,0-6.7l-4.35-4.35a4.73,4.73,0,0,0-6.69,0l-4.7,4.7a1.54,1.54,0,0,1-1.89.22,38.31,38.31,0,0,0-11.33-4.69A1.54,1.54,0,0,1,125,48V41.3a4.73,4.73,0,0,0-4.73-4.73h-6.16a4.74,4.74,0,0,0-4.74,4.73V48a1.54,1.54,0,0,1-1.18,1.49,38.53,38.53,0,0,0-11.33,4.69A1.54,1.54,0,0,1,95,53.91l-4.69-4.7a4.74,4.74,0,0,0-6.7,0l-4.35,4.35a4.74,4.74,0,0,0,0,6.7L84,65a1.54,1.54,0,0,1,.22,1.89,38.31,38.31,0,0,0-4.69,11.33A1.53,1.53,0,0,1,78,79.35H71.35a4.75,4.75,0,0,0-4.74,4.74v6.16A4.74,4.74,0,0,0,71.35,95H78a1.54,1.54,0,0,1,1.49,1.18,38.37,38.37,0,0,0,4.69,11.34,1.54,1.54,0,0,1-.32,2l-4.6,4.6a4.73,4.73,0,0,0,0,6.69l4.35,4.36a4.74,4.74,0,0,0,6.7,0l4.6-4.6A1.52,1.52,0,0,1,96.09,120Z"/><path class="cls-1" d="M38.66,59.07A20.41,20.41,0,1,1,59.07,38.66,20.44,20.44,0,0,1,38.66,59.07Zm0-38.61a18.2,18.2,0,1,0,18.2,18.2A18.21,18.21,0,0,0,38.66,20.46Z"/><path class="cls-1" d="M40.88,77.32H36.44a5.62,5.62,0,0,1-5.62-5.62V67.77a30.23,30.23,0,0,1-7.2-3l-2.78,2.78a5.63,5.63,0,0,1-7.95,0L9.75,64.43a5.63,5.63,0,0,1,0-8l2.78-2.78a29.89,29.89,0,0,1-3-7.2H5.62A5.62,5.62,0,0,1,0,40.88V36.44a5.62,5.62,0,0,1,5.62-5.62H9.55a30.47,30.47,0,0,1,3-7.21L9.75,20.84a5.65,5.65,0,0,1,0-7.95l3.14-3.14a5.65,5.65,0,0,1,8,0l2.77,2.78a30.3,30.3,0,0,1,7.21-3V5.62A5.62,5.62,0,0,1,36.44,0h4.44A5.62,5.62,0,0,1,46.5,5.62V9.55a30.3,30.3,0,0,1,7.21,3l2.77-2.78a5.65,5.65,0,0,1,8,0l3.14,3.14a5.63,5.63,0,0,1,0,8l-2.78,2.77a30.3,30.3,0,0,1,3,7.21H71.7a5.62,5.62,0,0,1,5.62,5.62v4.44A5.62,5.62,0,0,1,71.7,46.5H67.77a30.13,30.13,0,0,1-3,7.21l2.78,2.77a5.63,5.63,0,0,1,0,8l-3.14,3.14a5.63,5.63,0,0,1-8,0l-2.77-2.78a30.47,30.47,0,0,1-7.21,3V71.7A5.62,5.62,0,0,1,40.88,77.32Zm-17.44-15a1.12,1.12,0,0,1,.58.17,28,28,0,0,0,8.16,3.38A1.1,1.1,0,0,1,33,66.91V71.7a3.41,3.41,0,0,0,3.41,3.41h4.44a3.41,3.41,0,0,0,3.41-3.41V66.91a1.1,1.1,0,0,1,.85-1.07,27.68,27.68,0,0,0,8.16-3.38h0l.09-.05a1.11,1.11,0,0,1,1.34.28L58,66a3.41,3.41,0,0,0,4.83,0L66,62.87A3.42,3.42,0,0,0,66,58l-3.31-3.31a1.09,1.09,0,0,1-.27-1.35.3.3,0,0,1,.06-.11,28,28,0,0,0,3.36-8.13,1.1,1.1,0,0,1,1.07-.85H71.7a3.41,3.41,0,0,0,3.41-3.41V36.44A3.41,3.41,0,0,0,71.7,33H66.91a1.1,1.1,0,0,1-1.07-.85A27.68,27.68,0,0,0,62.46,24a1.1,1.1,0,0,1,.16-1.36L66,19.28a3.42,3.42,0,0,0,0-4.83l-3.13-3.13a3.42,3.42,0,0,0-4.83,0L54.66,14.7a1.1,1.1,0,0,1-1.36.16,28,28,0,0,0-8.16-3.38,1.1,1.1,0,0,1-.85-1.07V5.62a3.41,3.41,0,0,0-3.41-3.41H36.44A3.41,3.41,0,0,0,33,5.62v4.79a1.1,1.1,0,0,1-.85,1.07A28,28,0,0,0,24,14.86a1.1,1.1,0,0,1-1.36-.16l-3.38-3.38a3.42,3.42,0,0,0-4.83,0l-3.13,3.13a3.42,3.42,0,0,0,0,4.83l3.38,3.38A1.1,1.1,0,0,1,14.86,24a27.68,27.68,0,0,0-3.38,8.16,1.1,1.1,0,0,1-1.07.85H5.62a3.41,3.41,0,0,0-3.41,3.41v4.44a3.41,3.41,0,0,0,3.41,3.41h4.79a1.1,1.1,0,0,1,1.07.85,28,28,0,0,0,3.38,8.16,1.11,1.11,0,0,1-.23,1.43L11.32,58a3.42,3.42,0,0,0,0,4.83L14.45,66a3.4,3.4,0,0,0,4.83,0l3.31-3.31A1.11,1.11,0,0,1,23.44,62.29Z"/></g></g></svg>