<svg xmlns="http://www.w3.org/2000/svg" width="36" height="36.001" viewBox="0 0 36 36.001">
  <path id="Exclusion_1" data-name="Exclusion 1" d="M14.277,36H2.623A2.633,2.633,0,0,1,0,33.406V2.593A2.634,2.634,0,0,1,2.624,0H33.367A2.647,2.647,0,0,1,36,2.593V33.407A2.644,2.644,0,0,1,33.37,36H20.528V23.2h6.251V16.987h-6.25V13.8a2.193,2.193,0,0,1,.391-1.318,1.1,1.1,0,0,1,.878-.537h4.981V5.721H21.8A7.015,7.015,0,0,0,16.475,8.1a8.219,8.219,0,0,0-2.2,5.763v3.127H9.263V23.2h5.014V36Z" fill="#fff"/>
</svg>
