<svg xmlns="http://www.w3.org/2000/svg" viewBox="0 0 157.37 100.89"><defs><style>.cls-1{fill:#dc7f17;}</style></defs><g id="Layer_2" data-name="Layer 2"><g id="Layer_1-2" data-name="Layer 1"><path class="cls-1" d="M34.38,96.26h-29A5.39,5.39,0,0,1,0,90.87v-29H0a1.55,1.55,0,0,1,.11-.56h0a1.55,1.55,0,0,1,1.39-.92h9.27a7.86,7.86,0,0,1,1.43-9,8,8,0,0,1,12.91,9h9.25a1.54,1.54,0,0,1,1.53,1.54h0V74.27a1.53,1.53,0,0,1-2.72,1,4.91,4.91,0,1,0,0,6.15,1.53,1.53,0,0,1,2.72,1V94.73A1.53,1.53,0,0,1,34.38,96.26ZM3.07,63.42V90.87A2.32,2.32,0,0,0,5.39,93.2H32.85V85.48a8,8,0,0,1-3.24.79,8,8,0,1,1,3.24-15.13V63.42H22a1.54,1.54,0,0,1-1-2.73,4.88,4.88,0,0,0,.36-7.3A5,5,0,0,0,17.87,52a4.9,4.9,0,0,0-3,8.71,1.54,1.54,0,0,1-1,2.73H3.07Z"/><path class="cls-1" d="M135.09,95.12a1.53,1.53,0,0,1-1.53-1.54V65.63a1.53,1.53,0,0,1,3.06,0v28A1.54,1.54,0,0,1,135.09,95.12Z"/><path class="cls-1" d="M146.65,58.08a1.54,1.54,0,0,1-1.54-1.53V39.9a1.54,1.54,0,0,1,3.07,0V56.55A1.54,1.54,0,0,1,146.65,58.08Z"/><path class="cls-1" d="M123.54,58.08A1.54,1.54,0,0,1,122,56.55V39.9a1.54,1.54,0,0,1,3.07,0V56.55A1.54,1.54,0,0,1,123.54,58.08Z"/><path class="cls-1" d="M135.09,18.59a9.3,9.3,0,1,1,9.29-9.3A9.3,9.3,0,0,1,135.09,18.59Zm0-15.52a6.23,6.23,0,1,0,6.23,6.22A6.23,6.23,0,0,0,135.09,3.07Z"/><path class="cls-1" d="M140.88,100.89A7.31,7.31,0,0,1,136,99a6.87,6.87,0,0,1-.86-.93,7.58,7.58,0,0,1-.86.93,7.31,7.31,0,0,1-5.63,1.87,7.51,7.51,0,0,1-6.6-7.53V56.56a.78.78,0,0,1,0-.14c0-.34,0-.71,0-1.11V40.55a.92.92,0,0,0-.58-.86.9.9,0,0,0-1,.21l-12,12a6.14,6.14,0,0,1-9.07-.45,6.29,6.29,0,0,1,.54-8.36h0L117.8,25.5a12.89,12.89,0,0,1,9.09-3.72h19.76A10.73,10.73,0,0,1,157.37,32.5V56.74a6.13,6.13,0,0,1-6.73,6.1,5.7,5.7,0,0,1-2.46-.82V93.33a7.51,7.51,0,0,1-6.6,7.53C141.35,100.88,141.11,100.89,140.88,100.89Zm-4.26-7.31a4.24,4.24,0,0,0,4.67,4.23,4.42,4.42,0,0,0,3.82-4.48V56.55a1.54,1.54,0,1,1,3.07,0,3.19,3.19,0,0,0,2.75,3.24,3.06,3.06,0,0,0,3.37-3V32.5a7.66,7.66,0,0,0-7.65-7.66H126.89A9.85,9.85,0,0,0,120,27.68L102.07,45.23a3.21,3.21,0,0,0-.34,4.24,3.07,3.07,0,0,0,4.54.23l12-12a4,4,0,0,1,6.82,2.82V93.33a4.42,4.42,0,0,0,3.83,4.48,4.26,4.26,0,0,0,4.67-4.23,1.53,1.53,0,0,1,3.06,0Z"/><path class="cls-1" d="M34.38,63.42H22a1.54,1.54,0,0,1-1-2.73,4.88,4.88,0,0,0,.36-7.3A5,5,0,0,0,17.87,52a4.9,4.9,0,0,0-3,8.71,1.54,1.54,0,0,1-1,2.73H1.53A1.54,1.54,0,0,1,0,61.89v-29a5.4,5.4,0,0,1,5.39-5.39h29A1.53,1.53,0,0,1,35.91,29v9.25a8,8,0,0,1,3.24-.79,8.06,8.06,0,0,1,8.2,7.83,8,8,0,0,1-11.44,7.3v9.25A1.54,1.54,0,0,1,34.38,63.42Zm-9.25-3.07h7.72V49.5a1.53,1.53,0,0,1,2.72-1,4.91,4.91,0,0,0,7.31.36A4.85,4.85,0,0,0,42.75,42a4.83,4.83,0,0,0-7.18.44,1.53,1.53,0,0,1-2.72-1V30.57H5.39A2.33,2.33,0,0,0,3.07,32.9V60.35h7.72a7.86,7.86,0,0,1,1.43-9,8,8,0,0,1,12.91,9Z"/><path class="cls-1" d="M83.13,64.08A8,8,0,0,1,76,52.64H66.7a1.54,1.54,0,0,1-1.53-1.53V38.73a1.54,1.54,0,0,1,2.73-1,4.9,4.9,0,1,0,0-6.15,1.54,1.54,0,0,1-2.73-1V18.26a1.54,1.54,0,0,1,1.53-1.53h29a5.39,5.39,0,0,1,5.39,5.39v29a1.53,1.53,0,0,1-1.53,1.53H90.3a8,8,0,0,1-7,11.44ZM68.24,49.57H79.09a1.54,1.54,0,0,1,1,2.73,4.9,4.9,0,0,0-.36,7.3A5,5,0,0,0,83.21,61,5,5,0,0,0,88,56,4.92,4.92,0,0,0,86.2,52.3a1.54,1.54,0,0,1,1-2.73H98V22.12a2.33,2.33,0,0,0-2.33-2.33H68.24v7.73a8,8,0,0,1,9.15,12.75,8,8,0,0,1-9.15,1.59Z"/><path class="cls-1" d="M63.37,96.26h-29a1.52,1.52,0,0,1-1.53-1.53V85.48a8,8,0,0,1-3.24.79,8,8,0,1,1,3.24-15.13V61.89a1.53,1.53,0,0,1,1.53-1.54H46.76a1.54,1.54,0,0,1,1,2.73,4.9,4.9,0,0,0-.36,7.3,5,5,0,0,0,3.52,1.41,4.86,4.86,0,0,0,3.44-1.54,4.83,4.83,0,0,0-.45-7.17,1.54,1.54,0,0,1,1-2.73H67.22a1.54,1.54,0,0,1,1.54,1.54v29A5.39,5.39,0,0,1,63.37,96.26ZM35.91,93.2H63.37a2.32,2.32,0,0,0,2.32-2.33V63.42H58a7.9,7.9,0,0,1-1.44,9,7.85,7.85,0,0,1-5.6,2.48H50.8a8,8,0,0,1-7.17-11.44H35.91V74.27a1.53,1.53,0,0,1-2.72,1,4.91,4.91,0,1,0,0,6.15,1.53,1.53,0,0,1,2.72,1Z"/></g></g></svg>