<svg xmlns="http://www.w3.org/2000/svg" viewBox="0 0 27.21 38.99"><defs><style>.cls-1{fill:#dc7f17;stroke:#dc7f17;stroke-miterlimit:10;stroke-width:0.5px;}</style></defs><g id="Layer_2" data-name="Layer 2"><g id="Layer_1-2" data-name="Layer 1"><path class="cls-1" d="M13.61,12a.23.23,0,0,1-.17-.07,1.83,1.83,0,0,0-1.22-.48.25.25,0,0,1-.25-.25.25.25,0,0,1,.25-.25,2.28,2.28,0,0,1,1.56.62.24.24,0,0,1,0,.35A.22.22,0,0,1,13.61,12Z"/><path class="cls-1" d="M7.38,9.92a4.84,4.84,0,1,1,4.84-4.83A4.84,4.84,0,0,1,7.38,9.92Zm0-9.17a4.34,4.34,0,1,0,4.34,4.34A4.35,4.35,0,0,0,7.38.75Z"/><path class="cls-1" d="M10.18,38.73a2.43,2.43,0,0,1-.38,0,2.36,2.36,0,0,1-1.91-2.36v-12a.38.38,0,0,0-.38-.38H7.25a.39.39,0,0,0-.39.38V36.45a2.29,2.29,0,0,1-.8,1.74,2.25,2.25,0,0,1-1.87.51,2.36,2.36,0,0,1-1.9-2.36V16.09a.25.25,0,0,1,.5,0V36.34a1.86,1.86,0,0,0,1.48,1.87,1.74,1.74,0,0,0,1.46-.4,1.79,1.79,0,0,0,.63-1.36V24.32a.88.88,0,0,1,.89-.88h.26a.87.87,0,0,1,.88.88v12a1.86,1.86,0,0,0,1.49,1.87,1.75,1.75,0,0,0,1.46-.4A1.79,1.79,0,0,0,12,36.45V22.08a.25.25,0,0,1,.5,0V36.45a2.29,2.29,0,0,1-2.29,2.28Z"/><path class="cls-1" d="M12.22,11.41H2.54a.25.25,0,0,1-.25-.25.25.25,0,0,1,.25-.25h9.68a.25.25,0,0,1,.25.25A.25.25,0,0,1,12.22,11.41Z"/><path class="cls-1" d="M11,22.91a.28.28,0,0,1-.23-.15.26.26,0,0,1,.13-.33l4-1.85a.26.26,0,0,1,.34.12.26.26,0,0,1-.13.34l-4,1.84A.23.23,0,0,1,11,22.91Z"/><path class="cls-1" d="M10.57,18.6a.25.25,0,0,1-.23-.14.25.25,0,0,1,.12-.33l2.24-1V13.2A2.3,2.3,0,0,1,15,10.91a.25.25,0,0,1,.25.25.25.25,0,0,1-.25.25A1.79,1.79,0,0,0,13.2,13.2v4.06a.27.27,0,0,1-.14.23l-2.39,1.09A.18.18,0,0,1,10.57,18.6Z"/><path class="cls-1" d="M19.83,9.92a4.84,4.84,0,1,1,4.84-4.83A4.84,4.84,0,0,1,19.83,9.92Zm0-9.17a4.34,4.34,0,1,0,4.34,4.34A4.35,4.35,0,0,0,19.83.75Z"/><path class="cls-1" d="M24.67,11.41H15a.25.25,0,0,1-.25-.25.25.25,0,0,1,.25-.25h9.68a.25.25,0,0,1,.25.25A.25.25,0,0,1,24.67,11.41Z"/><path class="cls-1" d="M22.63,38.73a2.43,2.43,0,0,1-.38,0,2.35,2.35,0,0,1-1.9-2.36V24.45a.52.52,0,0,0-.52-.51.51.51,0,0,0-.51.51v12a2.3,2.3,0,0,1-.81,1.74,2.24,2.24,0,0,1-1.86.51,2.36,2.36,0,0,1-1.91-2.36V15.2a.25.25,0,0,1,.5,0V36.34a1.86,1.86,0,0,0,1.49,1.87,1.76,1.76,0,0,0,1.46-.4,1.79,1.79,0,0,0,.63-1.36v-12a1,1,0,0,1,2,0V36.34a1.85,1.85,0,0,0,1.48,1.87,1.75,1.75,0,0,0,1.46-.4,1.79,1.79,0,0,0,.63-1.36V26a.25.25,0,0,1,.5,0V36.45a2.29,2.29,0,0,1-.8,1.74A2.33,2.33,0,0,1,22.63,38.73Z"/><path class="cls-1" d="M24.67,26.21a2.29,2.29,0,0,1-2.29-2.29V15.2a.26.26,0,0,1,.25-.25.25.25,0,0,1,.25.25v8.72a1.79,1.79,0,1,0,3.58,0V13.2a1.79,1.79,0,0,0-1.79-1.79.25.25,0,0,1-.25-.25.25.25,0,0,1,.25-.25A2.3,2.3,0,0,1,27,13.2V23.92A2.29,2.29,0,0,1,24.67,26.21Z"/><path class="cls-1" d="M10.12,23.07A2.29,2.29,0,0,1,8.5,22.4L.92,14.82a2.29,2.29,0,0,1,0-3.23,2.25,2.25,0,0,1,1.62-.68.25.25,0,0,1,.25.25.25.25,0,0,1-.25.25,1.79,1.79,0,0,0-1.27.53,1.8,1.8,0,0,0,0,2.53l7.58,7.58a1.84,1.84,0,0,0,2.53,0,1.79,1.79,0,0,0,0-2.53L5.22,13.36a.26.26,0,0,1,0-.35.25.25,0,0,1,.36,0l6.16,6.16a2.28,2.28,0,0,1,0,3.23A2.3,2.3,0,0,1,10.12,23.07Z"/></g></g></svg>