<svg xmlns="http://www.w3.org/2000/svg" viewBox="0 0 95.32 110.73"><defs><style>.cls-1{fill:#dc7f17;}</style></defs><g id="Layer_2" data-name="Layer 2"><g id="Layer_1-2" data-name="Layer 1"><path class="cls-1" d="M23.62,104.58a1.54,1.54,0,0,1-1.53-1.53V73.28a1.54,1.54,0,0,1,3.07,0v29.77A1.54,1.54,0,0,1,23.62,104.58Z"/><path class="cls-1" d="M17.45,110.73c-.24,0-.49,0-.73,0a7.9,7.9,0,0,1-6.94-7.92V69.26a6,6,0,0,1-2.73.95,6.42,6.42,0,0,1-7-6.39V38A11.33,11.33,0,0,1,11.31,26.69H35.93a10.69,10.69,0,0,1,6.56,2.38L53,37.21l11,3.52a5.92,5.92,0,0,1,3.75,7.74A5.93,5.93,0,0,1,61.1,52.2L54.62,51a52.65,52.65,0,0,1-12-3.85l-5.12-2.36v58a7.9,7.9,0,0,1-6.93,7.92,7.69,7.69,0,0,1-6.91-3,7.67,7.67,0,0,1-6.17,3.08Zm-4.6-47.12v39.17A4.81,4.81,0,0,0,17,107.65a4.62,4.62,0,0,0,5.08-4.6,1.54,1.54,0,1,1,3.07,0,4.62,4.62,0,0,0,5.07,4.6,4.81,4.81,0,0,0,4.17-4.87v-39a.62.62,0,0,1,0-.13V42.36a1.54,1.54,0,0,1,.71-1.29,1.52,1.52,0,0,1,1.46-.1l7.3,3.35A49.66,49.66,0,0,0,55.2,48l6.47,1.23a2.85,2.85,0,0,0,3.22-1.8,2.87,2.87,0,0,0-1.82-3.73l-11.31-3.6a1.47,1.47,0,0,1-.48-.25L40.6,31.49A7.67,7.67,0,0,0,36,29.76H11.32A8.26,8.26,0,0,0,3.07,38V63.82a3.39,3.39,0,0,0,1.1,2.49,3.29,3.29,0,0,0,2.59.85,3.5,3.5,0,0,0,3-3.55,1.54,1.54,0,0,1,3.07,0Z"/><path class="cls-1" d="M35.93,29.76H11.32a1.54,1.54,0,1,1,0-3.07H35.93a1.54,1.54,0,0,1,0,3.07Z"/><path class="cls-1" d="M11.32,65.14a1.53,1.53,0,0,1-1.54-1.53V42.36a1.54,1.54,0,1,1,3.07,0V63.61A1.53,1.53,0,0,1,11.32,65.14Z"/><path class="cls-1" d="M23.62,23.09a9.8,9.8,0,1,1,9.8-9.79A9.8,9.8,0,0,1,23.62,23.09Zm0-16.52a6.73,6.73,0,1,0,6.73,6.73A6.74,6.74,0,0,0,23.62,6.57Z"/><path class="cls-1" d="M61,110.73a1.53,1.53,0,0,1-1.53-1.53V50.69a1.54,1.54,0,0,1,3.07,0V109.2A1.53,1.53,0,0,1,61,110.73Z"/><path class="cls-1" d="M61,42.93a1.54,1.54,0,0,1-1.53-1.54V1.53a1.54,1.54,0,0,1,3.07,0V41.39A1.54,1.54,0,0,1,61,42.93Z"/><path class="cls-1" d="M67.94,24.75a14.11,14.11,0,0,1-7.72-2.24,1.54,1.54,0,0,1-.71-1.3V3.94a1.53,1.53,0,0,1,2.35-1.29c4.86,3.07,9.83,1.5,15.09-.17,5.7-1.8,11.6-3.67,17.66.17a1.54,1.54,0,0,1,.71,1.29V21.21a1.51,1.51,0,0,1-.79,1.34,1.55,1.55,0,0,1-1.56,0c-4.86-3.08-9.83-1.5-15.09.16C74.63,23.7,71.31,24.75,67.94,24.75Zm-5.36-4.42c4.63,2.51,9.37,1,14.37-.58S87,16.57,92.25,18.7V4.82c-4.62-2.5-9.37-1-14.37.58s-10.07,3.19-15.3,1Z"/></g></g></svg>