<svg xmlns="http://www.w3.org/2000/svg" viewBox="0 0 54.91 39.14"><defs><style>.cls-1{fill:#dc7f17;stroke:#dc7f17;stroke-miterlimit:10;stroke-width:0.5px;}</style></defs><g id="Layer_2" data-name="Layer 2"><g id="Layer_1-2" data-name="Layer 1"><g id="Layer_2-2" data-name="Layer 2"><g id="Layer_1-2-2" data-name="Layer 1-2"><path class="cls-1" d="M15,9.93a4.84,4.84,0,1,0-4.84-4.84h0A4.84,4.84,0,0,0,15,9.93ZM15,.75a4.34,4.34,0,1,1-4.34,4.34h0A4.34,4.34,0,0,1,15,.75Z"/><path class="cls-1" d="M39.9,9.93a4.84,4.84,0,1,0-4.83-4.85h0A4.84,4.84,0,0,0,39.9,9.93Zm0-9.18A4.34,4.34,0,1,1,35.57,5.1h0A4.35,4.35,0,0,1,39.9.75Z"/><path class="cls-1" d="M53.34,6.25a2.29,2.29,0,0,0-3,1.12l-1.63,3.54H31.17L29.54,7.38h0a2.29,2.29,0,0,0-4.13.06L23.79,11H6.23L4.6,7.38a2.29,2.29,0,0,0-3-1.13,2.31,2.31,0,0,0-1.13,3l2.24,4.87a2.3,2.3,0,0,0,2,1.32H9.87v21a2.29,2.29,0,0,0,4.58,0V23.94h1V36.45a2.29,2.29,0,0,0,4.58,0v-21h5.2a2.3,2.3,0,0,0,2-1.32l.17-.36.16.36a2.29,2.29,0,0,0,2,1.32h5.16v21a2.29,2.29,0,0,0,4.58,0V23.94h1V36.45a2.29,2.29,0,1,0,4.57.3,1.5,1.5,0,0,0,0-.3v-21h5.36a2.3,2.3,0,0,0,2-1.32l2.24-4.87A2.31,2.31,0,0,0,53.34,6.25ZM26.84,14a1.79,1.79,0,0,1-1.63,1H19.82a.32.32,0,0,0-.19.07.24.24,0,0,0-.07.18V36.45a1.79,1.79,0,0,1-3.58,0V23.69a.25.25,0,0,0-.25-.25h-1.5a.25.25,0,0,0-.25.25V36.45a1.79,1.79,0,0,1-3.58,0V15.25a.25.25,0,0,0-.25-.25H4.76a1.77,1.77,0,0,1-1.62-1L.9,9.09a1.79,1.79,0,1,1,3.25-1.5l1.69,3.66a.25.25,0,0,0,.23.15H23.91a.25.25,0,0,0,.22-.15l1.7-3.68a1.79,1.79,0,0,1,1.63-1,1.73,1.73,0,0,1,.74.16,1.8,1.8,0,0,1,.88,2.38L27.23,13h0ZM54,9.09,51.77,14a1.77,1.77,0,0,1-1.62,1h-5.4a.29.29,0,0,0-.18.07.25.25,0,0,0-.08.18V36.45a1.79,1.79,0,0,1-3.57.27,1.22,1.22,0,0,1,0-.27V23.69a.25.25,0,0,0-.25-.25H39.14a.25.25,0,0,0-.25.25V36.45a1.79,1.79,0,0,1-3.58,0V15.25a.25.25,0,0,0-.25-.25H29.7a1.78,1.78,0,0,1-1.63-1l-.34-.75,1.8-3.91a1.5,1.5,0,0,0,.15-.42l1.1,2.33a.25.25,0,0,0,.23.15H48.84a.25.25,0,0,0,.23-.15l1.69-3.68A1.79,1.79,0,1,1,54,9l0,.06Z"/></g></g></g></g></svg>