<svg xmlns="http://www.w3.org/2000/svg" viewBox="0 0 54.45 38.49"><defs><style>.cls-1{fill:#dc7f17;}</style></defs><g id="Layer_2" data-name="Layer 2"><g id="Layer_1-2" data-name="Layer 1"><path class="cls-1" d="M14.74,9.68A4.84,4.84,0,1,0,9.9,4.84,4.84,4.84,0,0,0,14.74,9.68Zm0-9.18A4.34,4.34,0,1,1,10.4,4.84,4.34,4.34,0,0,1,14.74.5Z"/><path class="cls-1" d="M39.67,9.68a4.84,4.84,0,1,0-4.83-4.84A4.84,4.84,0,0,0,39.67,9.68Zm0-9.18a4.34,4.34,0,1,1-4.33,4.34A4.35,4.35,0,0,1,39.67.5Z"/><path class="cls-1" d="M53.11,6a2.29,2.29,0,0,0-3,1.12l-1.63,3.54H30.94L29.31,7.13l0,0v0a2.29,2.29,0,0,0-4.13.06l-1.62,3.54H6L4.37,7.13A2.29,2.29,0,0,0,1.34,6a2.31,2.31,0,0,0-1.13,3l2.24,4.87a2.3,2.3,0,0,0,2,1.32H9.64v21a2.29,2.29,0,0,0,4.58,0V23.69h1V36.2a2.29,2.29,0,0,0,4.58,0v-21H25a2.29,2.29,0,0,0,2-1.32l.17-.36.16.36a2.29,2.29,0,0,0,2,1.32h5.16v21a2.29,2.29,0,0,0,4.58,0V23.69h1V36.2a2.29,2.29,0,1,0,4.57,0v-21H50a2.3,2.3,0,0,0,2-1.32l2.24-4.87A2.3,2.3,0,0,0,53.11,6Zm-26.5,7.7a1.79,1.79,0,0,1-1.63,1H19.59a.32.32,0,0,0-.19.07.26.26,0,0,0-.07.18V36.2a1.79,1.79,0,0,1-3.58,0V23.44a.25.25,0,0,0-.25-.25H14a.25.25,0,0,0-.25.25V36.2a1.79,1.79,0,0,1-3.58,0V15a.25.25,0,0,0-.25-.25H4.53a1.79,1.79,0,0,1-1.62-1L.67,8.84a1.8,1.8,0,0,1,.88-2.38,1.8,1.8,0,0,1,2.37.88L5.61,11a.25.25,0,0,0,.23.15H23.68A.25.25,0,0,0,23.9,11l1.7-3.68a1.8,1.8,0,0,1,1.63-1,1.76,1.76,0,0,1,.74.16,1.8,1.8,0,0,1,.88,2.38L27,12.78l0,0,0,0s0,0,0,0v0ZM53.78,8.84l-2.24,4.87a1.79,1.79,0,0,1-1.62,1h-5.4a.29.29,0,0,0-.18.07.27.27,0,0,0-.08.18V36.2a1.79,1.79,0,1,1-3.57,0V23.44a.25.25,0,0,0-.25-.25H38.91a.25.25,0,0,0-.25.25V36.2a1.79,1.79,0,0,1-3.58,0V15a.25.25,0,0,0-.25-.25H29.47a1.79,1.79,0,0,1-1.63-1L27.5,13l1.8-3.91a1.77,1.77,0,0,0,.15-.42L30.55,11a.25.25,0,0,0,.23.15H48.61a.25.25,0,0,0,.23-.15l1.69-3.68a1.79,1.79,0,1,1,3.25,1.5Z"/></g></g></svg>