<svg xmlns="http://www.w3.org/2000/svg" width="36" height="36" viewBox="0 0 36 36">
  <path id="Subtraction_1" data-name="Subtraction 1" d="M2.623,36h0A2.624,2.624,0,0,1,0,33.406V2.593A2.634,2.634,0,0,1,2.624,0H33.367A2.647,2.647,0,0,1,36,2.593V33.407A2.644,2.644,0,0,1,33.37,36H2.623ZM18.5,5c-3.627,0-4.109.015-5.566.081a10.037,10.037,0,0,0-3.277.627A6.9,6.9,0,0,0,5.709,9.658a9.99,9.99,0,0,0-.627,3.277C5.015,14.361,5,14.792,5,18.5c0,3.627.015,4.108.081,5.565a10.05,10.05,0,0,0,.627,3.278,6.9,6.9,0,0,0,3.949,3.948,10.047,10.047,0,0,0,3.277.628c1.426.067,1.857.081,5.566.081,3.6,0,4.088-.015,5.565-.081a10.072,10.072,0,0,0,3.278-.628,6.9,6.9,0,0,0,3.948-3.948,10.049,10.049,0,0,0,.628-3.278c.067-1.426.081-1.857.081-5.565,0-3.6-.015-4.089-.081-5.566a10.051,10.051,0,0,0-.628-3.277,6.9,6.9,0,0,0-3.948-3.949,10,10,0,0,0-3.278-.627C22.639,5.015,22.208,5,18.5,5Zm-.034,24.567c-3.661,0-4.043-.018-5.467-.083a7.643,7.643,0,0,1-2.516-.474A4.155,4.155,0,0,1,8.933,28a4.112,4.112,0,0,1-1.013-1.552,7.625,7.625,0,0,1-.472-2.515l0-.069c-.05-1.38-.067-1.845-.067-5.381s.017-4,.067-5.395l0-.074A7.621,7.621,0,0,1,7.921,10.5,4.008,4.008,0,0,1,8.933,8.948a4,4,0,0,1,1.551-1.011,7.474,7.474,0,0,1,2.5-.473l.074,0c1.38-.049,1.845-.065,5.392-.065l.051.034c3.614,0,4.041.018,5.456.079a7.439,7.439,0,0,1,2.506.467,4.444,4.444,0,0,1,2.562,2.561,7.478,7.478,0,0,1,.465,2.506c.065,1.441.078,1.871.078,5.457,0,3.662-.019,4.078-.083,5.456a7.571,7.571,0,0,1-.474,2.506A4.3,4.3,0,0,1,28,28.016a4.193,4.193,0,0,1-1.553,1.008,7.548,7.548,0,0,1-2.515.465C22.483,29.554,22.051,29.568,18.466,29.568Zm.034-18A6.932,6.932,0,1,0,25.432,18.5,6.941,6.941,0,0,0,18.5,11.568Zm7.206-1.892a1.619,1.619,0,1,0,1.62,1.618,1.621,1.621,0,0,0-1.62-1.618ZM18.5,23A4.5,4.5,0,1,1,23,18.5,4.505,4.505,0,0,1,18.5,23Z" transform="translate(0 0)" fill="#fff"/>
</svg>
