<svg xmlns="http://www.w3.org/2000/svg" viewBox="0 0 109.02 107.3"><defs><style>.cls-1{fill:#dc7f17;}</style></defs><g id="Layer_2" data-name="Layer 2"><g id="Layer_1-2" data-name="Layer 1"><path class="cls-1" d="M54.51,19.59a9.8,9.8,0,1,1,9.8-9.79A9.8,9.8,0,0,1,54.51,19.59Zm0-16.52A6.73,6.73,0,1,0,61.24,9.8,6.73,6.73,0,0,0,54.51,3.07Z"/><path class="cls-1" d="M27.53,107.3a7.19,7.19,0,0,1-5.66-2.76A7.19,7.19,0,0,1,9,100.1V69.22A5.81,5.81,0,0,1,6.62,70,6,6,0,0,1,0,64V40.22A10.55,10.55,0,0,1,10.54,29.69H33a1.53,1.53,0,0,1,1.44,2A8.32,8.32,0,0,0,34,34.5V60.32a3.33,3.33,0,0,0,.53,1.78,1.54,1.54,0,0,1,.24.81v1.74h0V100.1A7.21,7.21,0,0,1,27.53,107.3Zm-4.13-7.2a4.14,4.14,0,1,0,8.27,0V63.34a6.35,6.35,0,0,1-.78-3V34.5A11.47,11.47,0,0,1,31,32.75H10.54a7.48,7.48,0,0,0-7.47,7.47V64a3,3,0,0,0,3.26,3A3.11,3.11,0,0,0,9,63.8V47.48a1.53,1.53,0,1,1,3.06,0V100.1a4.14,4.14,0,1,0,8.27,0V72.7a1.53,1.53,0,1,1,3.06,0Z"/><path class="cls-1" d="M21.87,26.62A9.14,9.14,0,1,1,31,17.48,9.15,9.15,0,0,1,21.87,26.62Zm0-15.22a6.08,6.08,0,1,0,6.07,6.08A6.09,6.09,0,0,0,21.87,11.4Z"/><path class="cls-1" d="M92.82,107.3a7.2,7.2,0,0,1-5.67-2.76,7.19,7.19,0,0,1-12.86-4.44V63.8a1.43,1.43,0,0,1,.07-.46,17.33,17.33,0,0,0,.71-3V34.5a8.34,8.34,0,0,0-.49-2.77,1.52,1.52,0,0,1,.19-1.4A1.54,1.54,0,0,1,76,29.69H98.48A10.55,10.55,0,0,1,109,40.22V64a6,6,0,0,1-6.63,6,5.82,5.82,0,0,1-2.38-.78V100.1A7.21,7.21,0,0,1,92.82,107.3Zm-4.14-7.2a4.14,4.14,0,1,0,8.27,0V63.92s0-.08,0-.12V47.48a1.54,1.54,0,0,1,3.07,0V63.81A3.1,3.1,0,0,0,102.69,67,3,3,0,0,0,106,64V40.22a7.48,7.48,0,0,0-7.47-7.47H78a10.33,10.33,0,0,1,.14,1.75V60.32A17.18,17.18,0,0,1,77.35,64V100.1a4.14,4.14,0,1,0,8.27,0V72.7a1.53,1.53,0,0,1,3.06,0Z"/><path class="cls-1" d="M60.66,107.23a7.69,7.69,0,0,1-6.15-3.08,7.69,7.69,0,0,1-13.84-4.6V65.76a6,6,0,0,1-2.73.95,6.47,6.47,0,0,1-7-6.39V34.5a11.11,11.11,0,0,1,.67-3.8A11.33,11.33,0,0,1,42.2,23.19H66.82A11.35,11.35,0,0,1,77.47,30.7h0a11.34,11.34,0,0,1,.66,3.8V60.32a6.47,6.47,0,0,1-7,6.39,6.07,6.07,0,0,1-2.73-.95V99.55A7.7,7.7,0,0,1,60.66,107.23ZM54.51,98a1.54,1.54,0,0,1,1.54,1.54,4.62,4.62,0,1,0,9.24,0V60.13a1.54,1.54,0,0,1,1.53-1.54h0a1.54,1.54,0,0,1,1.53,1.53,3.5,3.5,0,0,0,3,3.54,3.35,3.35,0,0,0,3.16-1.55,3.31,3.31,0,0,0,.54-1.79V34.5a8.28,8.28,0,0,0-8.25-8.24H42.21A8.24,8.24,0,0,0,34,34.5V60.32a3.39,3.39,0,0,0,3.69,3.34,3.49,3.49,0,0,0,3-3.55,1.54,1.54,0,0,1,3.07,0V99.55a4.62,4.62,0,0,0,9.24,0A1.54,1.54,0,0,1,54.51,98Z"/><path class="cls-1" d="M87.15,26.62a9.14,9.14,0,1,1,9.14-9.14A9.15,9.15,0,0,1,87.15,26.62Zm0-15.22a6.08,6.08,0,1,0,6.08,6.08A6.08,6.08,0,0,0,87.15,11.4Z"/><path class="cls-1" d="M54.51,101.08A1.54,1.54,0,0,1,53,99.55V70a1.54,1.54,0,1,1,3.07,0V99.55A1.54,1.54,0,0,1,54.51,101.08Z"/><path class="cls-1" d="M42.21,61.64a1.54,1.54,0,0,1-1.54-1.53V40a1.54,1.54,0,0,1,3.07,0V60.11A1.54,1.54,0,0,1,42.21,61.64Z"/><path class="cls-1" d="M66.82,61.66a1.53,1.53,0,0,1-1.53-1.53V40a1.53,1.53,0,0,1,3.06,0V60.13A1.54,1.54,0,0,1,66.82,61.66Z"/></g></g></svg>