<svg xmlns="http://www.w3.org/2000/svg" width="36.003" height="35.998" viewBox="0 0 36.003 35.998">
  <path id="Exclusion_2" data-name="Exclusion 2" d="M-14861.5,36h-31a2.5,2.5,0,0,1-2.5-2.5V2.5a2.5,2.5,0,0,1,2.5-2.5h31a2.5,2.5,0,0,1,2.5,2.5v31A2.5,2.5,0,0,1-14861.5,36Zm-26.3-28.231a2.683,2.683,0,0,0-2.681,2.68V26.533a2.683,2.683,0,0,0,2.681,2.68h21.445a2.683,2.683,0,0,0,2.681-2.68V10.448a2.683,2.683,0,0,0-2.681-2.68Zm21.445,18.766h-21.445V13.128l10.721,6.7,10.725-6.7v13.4Zm-10.725-9.383h0l-10.72-6.7h21.445l-10.724,6.7Z" transform="translate(14895.001)" fill="#fff" opacity="0.9"/>
</svg>
