<svg xmlns="http://www.w3.org/2000/svg" viewBox="0 0 30.76 37.63"><defs><style>.cls-1{fill:none;stroke-linecap:round;stroke-linejoin:round;stroke-width:0.75px;}.cls-1,.cls-2{stroke:#dc7f17;}.cls-2{fill:#dc7f17;stroke-miterlimit:10;stroke-width:0.25px;}</style></defs><g id="Layer_2" data-name="Layer 2"><g id="Layer_1-2" data-name="Layer 1"><g id="Layer_2-2" data-name="Layer 2"><g id="Layer_1-2-2" data-name="Layer 1-2"><path class="cls-1" d="M29.81,21.66c.63-3.68.6-10,.53-13.6a2.65,2.65,0,0,0-2.69-2.57A18.85,18.85,0,0,1,22,4.72C19.84,4,15.38.38,15.38.38S10.91,4,8.73,4.72a18.68,18.68,0,0,1-5.61.77A2.66,2.66,0,0,0,.41,8.05c-.09,4.38-.1,12.78,1,15.56,1.9,4.65,2.81,5.22,3.49,5.89,2.26,2.25,10.45,7.75,10.45,7.75s4.58-3.08,7.84-5.58"/><path class="cls-1" d="M27.53,21.71c.62-3,.6-8.76.54-12a2.25,2.25,0,0,0-2.3-2.17A16.63,16.63,0,0,1,21,6.88c-1.86-.6-5.67-3.68-5.67-3.68S11.47,6.31,9.61,6.91a16,16,0,0,1-4.81.66A2.27,2.27,0,0,0,2.5,9.74c-.07,3.71-.09,10.83.88,13.19,1.63,3.94,2.4,4.41,3,5,1.93,1.91,8.93,6.56,8.93,6.56s7-4.64,8.92-6.55"/><path class="cls-1" d="M30.34,8h0c.09,4.38.11,12.78-1,15.56-1.9,4.65-2.8,5.21-3.48,5.89-2.26,2.25-10.45,7.75-10.45,7.75"/><path class="cls-1" d="M28.08,9.71c.08,3.71.09,10.84-.88,13.19-1.62,3.94-2.4,4.42-3,5-1.94,1.91-8.93,6.56-8.93,6.56"/><path class="cls-2" d="M14.3,24.58a.46.46,0,0,1-.29-.13L9.27,19.73a.41.41,0,0,1,0-.58h0l2-2a.41.41,0,0,1,.58,0h0l2.5,2.49,5.82-5.83a.41.41,0,0,1,.58,0h0l1.95,2a.41.41,0,0,1,0,.58h0l-8.07,8.06A.41.41,0,0,1,14.3,24.58ZM9.75,19.43,14.28,24l7.91-7.91L20.46,14.3l-5.83,5.82c-.15.15-.29.36-.44.2l-2.64-2.68Z"/></g></g></g></g></svg>