<svg xmlns="http://www.w3.org/2000/svg" viewBox="0 0 30.51 37.4"><defs><style>.cls-1{fill:none;stroke:#dc7f17;stroke-linecap:round;stroke-linejoin:round;stroke-width:0.5px;}.cls-2{fill:#dc7f17;}</style></defs><g id="Layer_2" data-name="Layer 2"><g id="Layer_1-2" data-name="Layer 1"><path class="cls-1" d="M29.69,21.53c.63-3.68.6-10,.53-13.6a2.66,2.66,0,0,0-2.69-2.57,18.36,18.36,0,0,1-5.63-.77C19.72,3.88,15.26.25,15.26.25S10.79,3.88,8.61,4.59A18.36,18.36,0,0,1,3,5.36,2.66,2.66,0,0,0,.29,7.93c-.09,4.38-.1,12.78,1,15.56,1.9,4.65,2.81,5.21,3.49,5.89,2.26,2.25,10.45,7.75,10.45,7.75s4.58-3.08,7.84-5.58"/><path class="cls-1" d="M27.5,21.53c.62-3,.6-8.76.54-12a2.26,2.26,0,0,0-2.3-2.17,16.26,16.26,0,0,1-4.81-.66c-1.86-.6-5.67-3.68-5.67-3.68S11.44,6.14,9.58,6.74a16.26,16.26,0,0,1-4.81.66,2.26,2.26,0,0,0-2.3,2.17c-.07,3.71-.09,10.83.88,13.19,1.63,3.94,2.4,4.41,3,5,1.93,1.91,8.93,6.56,8.93,6.56s7-4.65,8.92-6.56"/><path class="cls-1" d="M.81,21.55A88.78,88.78,0,0,1,.29,8,2.65,2.65,0,0,1,3,5.39,18.64,18.64,0,0,0,8.6,4.61C10.79,3.9,15.25.27,15.25.27S19.71,3.9,21.9,4.61a18.64,18.64,0,0,0,5.62.78A2.65,2.65,0,0,1,30.21,8c.09,4.38.11,12.78-1,15.56-1.9,4.65-2.8,5.21-3.48,5.89-2.26,2.25-10.45,7.75-10.45,7.75s-4.59-3.08-7.84-5.58"/><path class="cls-1" d="M3,21.55c-.62-3-.6-8.76-.53-12a2.26,2.26,0,0,1,2.3-2.17,15.84,15.84,0,0,0,4.8-.66c1.87-.6,5.68-3.68,5.68-3.68s3.81,3.08,5.68,3.68a15.84,15.84,0,0,0,4.8.66A2.26,2.26,0,0,1,28,9.59c.08,3.71.09,10.84-.88,13.19-1.62,3.94-2.4,4.42-3,5-1.94,1.91-8.93,6.56-8.93,6.56s-7-4.65-8.93-6.56"/><path class="cls-2" d="M14.18,24.45a.42.42,0,0,1-.29-.12L9.15,19.6a.41.41,0,0,1,0-.58l1.95-1.95a.41.41,0,0,1,.58,0l2.5,2.49L20,13.73a.41.41,0,0,1,.58,0l1.95,2a.41.41,0,0,1,0,.58l-8.07,8.06A.4.4,0,0,1,14.18,24.45ZM9.63,19.31l4.53,4.54,7.91-7.91-1.73-1.76L14.51,20c-.15.15-.29.35-.44.19l-2.64-2.68Z"/></g></g></svg>