<svg xmlns="http://www.w3.org/2000/svg" viewBox="0 0 53.13 51.17"><defs><style>.cls-1{fill:#dc7f17;}</style></defs><g id="Layer_2" data-name="Layer 2"><g id="Layer_1-2" data-name="Layer 1"><path class="cls-1" d="M43.31.17A5.82,5.82,0,1,0,49.13,6,5.82,5.82,0,0,0,43.31.17Zm0,10.63A4.82,4.82,0,1,1,48.13,6,4.82,4.82,0,0,1,43.31,10.8Z"/><path class="cls-1" d="M38.5,29.06v2.37a2.43,2.43,0,0,1-1,.54V30.9a1.48,1.48,0,0,0,.84-1.33v-.84A.46.46,0,0,1,38.5,29.06Z"/><rect class="cls-1" x="37.5" y="32.92" width="1" height="1"/><path class="cls-1" d="M43.81,35V48a3.08,3.08,0,0,1-.5,1.69A3.14,3.14,0,0,1,39.64,51a3.19,3.19,0,0,1-1.44-1h1.62a2.14,2.14,0,0,0,.84.17l.3,0a2.16,2.16,0,0,0,1.85-2.09V35a.5.5,0,0,1,.5-.5A.5.5,0,0,1,43.81,35Z"/><path class="cls-1" d="M46,51.17A3.16,3.16,0,0,1,42.81,48a.5.5,0,0,1,.5-.5.5.5,0,0,1,.5.5,2.16,2.16,0,0,0,4.32,0V29.09a.5.5,0,0,1,.5-.5.5.5,0,0,1,.5.5V48A3.16,3.16,0,0,1,46,51.17Z"/><path class="cls-1" d="M34.84,15.63h-.11s0,0,0,0a3.35,3.35,0,0,1,.6-.53,3.06,3.06,0,0,1,.54-.34A4.37,4.37,0,0,1,38,14.21a.5.5,0,0,1,.5.5.5.5,0,0,1-.5.5,3.57,3.57,0,0,0-.8.09,3.39,3.39,0,0,0-1.19.54A3.24,3.24,0,0,0,34.84,15.63Z"/><path class="cls-1" d="M38.5,20.84v8.37a2.35,2.35,0,0,1-.09.6v0A2.51,2.51,0,0,1,36,31.65a2.25,2.25,0,0,1-.64-.09h0a2.46,2.46,0,0,1-1-1.56h-.73a2.37,2.37,0,0,1-.15-.85V29h1v.15a1.53,1.53,0,0,0,.26.85h0a1.48,1.48,0,0,0,1,.63l1.71.27a1.48,1.48,0,0,0,.84-1.33v-9.1A.49.49,0,0,1,38.5,20.84Z"/><path class="cls-1" d="M50.63,31.65a2.5,2.5,0,0,1-2.5-2.5V20.67a.5.5,0,0,1,.5-.5.51.51,0,0,1,.5.5v8.48a1.5,1.5,0,0,0,3,0V18.71a3.5,3.5,0,0,0-3.5-3.5H38a.5.5,0,0,1-.5-.5.51.51,0,0,1,.5-.5H48.63a4.51,4.51,0,0,1,4.5,4.5V29.15A2.5,2.5,0,0,1,50.63,31.65Z"/><path class="cls-1" d="M29.52.58A5.82,5.82,0,1,0,35.34,6.4,5.82,5.82,0,0,0,29.52.58Zm0,10.63A4.82,4.82,0,1,1,34.34,6.4,4.82,4.82,0,0,1,29.52,11.21Zm0-10.63A5.82,5.82,0,1,0,35.34,6.4,5.82,5.82,0,0,0,29.52.58Zm0,10.63A4.82,4.82,0,1,1,34.34,6.4,4.82,4.82,0,0,1,29.52,11.21Z"/><path class="cls-1" d="M24.21,22.83a.5.5,0,0,1-.5-.5v-.95L22.12,22.7a.5.5,0,1,1-.64-.77l2.41-2a.53.53,0,0,1,.54-.07.52.52,0,0,1,.28.46v2A.5.5,0,0,1,24.21,22.83Z"/><path class="cls-1" d="M35.34,15.09v0a.51.51,0,0,1-.5.5H26a4.56,4.56,0,0,0-2.9,1L19.6,19.59a1.33,1.33,0,0,1-1.71,0l-3.25-2.79a1.58,1.58,0,0,0-2-.09,1.53,1.53,0,0,0-.55,1.15A1.51,1.51,0,0,0,12.61,19l4.25,3.64a2.93,2.93,0,0,0,1.82.7H19l.2,0a.51.51,0,0,1,.58.42.5.5,0,0,1-.42.57,3,3,0,0,1-.42,0h-.21a3.89,3.89,0,0,1-2.53-.94L12,19.75a2.49,2.49,0,0,1,0-3.82,2.57,2.57,0,0,1,3.31.09l3.26,2.79a.31.31,0,0,0,.42,0L22.5,15.9A5.54,5.54,0,0,1,26,14.63h8.91A.5.5,0,0,1,35.34,15.09Z"/><path class="cls-1" d="M39.34,19.13V29.56a2.73,2.73,0,0,1-.05.5,2.47,2.47,0,0,1-.79,1.37,2.43,2.43,0,0,1-1,.54,2.45,2.45,0,0,1-2.14-.41h0a2.46,2.46,0,0,1-1-1.56,2.12,2.12,0,0,1,0-.44V29h.5a.5.5,0,0,1,.5.47v.09a1.48,1.48,0,0,0,.45,1.07l1.71.27a1.48,1.48,0,0,0,.84-1.33V19.13A3.48,3.48,0,0,0,36,15.84a3.24,3.24,0,0,0-1.17-.21h-.1a.5.5,0,0,1-.4-.49.5.5,0,0,1,.5-.5h.1a4.24,4.24,0,0,1,.94.11,4.39,4.39,0,0,1,1.32.55A4.5,4.5,0,0,1,39.34,19.13Z"/><path class="cls-1" d="M43.25,29.56v3.86a.5.5,0,0,1-.5.5H14.59a.5.5,0,0,1-.5-.5.5.5,0,0,1,.5-.5H42.25V30.06H38.84a.51.51,0,0,1-.34-.13l-.09-.1v0a.48.48,0,0,1-.07-.24v-.06a.52.52,0,0,1,.16-.31.48.48,0,0,1,.34-.14h3.91A.5.5,0,0,1,43.25,29.56Z"/><path class="cls-1" d="M35.34,29.47v.09a.51.51,0,0,1-.5.44H1v2.92H8.17a.5.5,0,0,1,.5.5.5.5,0,0,1-.5.5H.5a.51.51,0,0,1-.5-.5V29.5A.5.5,0,0,1,.5,29H34.84A.5.5,0,0,1,35.34,29.47Z"/><path class="cls-1" d="M31.07,22.18a.5.5,0,0,0-.48-.37H18.92a.54.54,0,0,0-.4.2.5.5,0,0,0-.08.43l.24.89H19l.2,0a.51.51,0,0,1,.58.42h0l-.24-.89H30.2L31.88,29h1Zm0,0a.5.5,0,0,0-.48-.37H18.92a.54.54,0,0,0-.4.2.5.5,0,0,0-.08.43l.24.89.27,1a3,3,0,0,0,.42,0,.5.5,0,0,0,.42-.57h0l-.24-.89H30.2L31.88,29h1Zm-9.28.63a.49.49,0,0,1-.38-.18.5.5,0,0,1,.07-.7l.14-.12h-2.7a.54.54,0,0,0-.4.2.5.5,0,0,0-.08.43l.24.89.27,1a3,3,0,0,0,.42,0,.5.5,0,0,0,.42-.57h0l-.24-.89Zm-2.58.48-.2,0h-.33l.27,1a3,3,0,0,0,.42,0,.5.5,0,0,0,.42-.57A.51.51,0,0,0,19.21,23.29ZM33,29.39,32.91,29l-1.84-6.82a.5.5,0,0,0-.48-.37H18.92a.54.54,0,0,0-.4.2.5.5,0,0,0-.08.43l.24.89.27,1L20.21,29l.18.65a.49.49,0,0,0,.37.35.2.2,0,0,0,.11,0H32.54l.14,0a.58.58,0,0,0,.26-.18A.5.5,0,0,0,33,29.39ZM19.81,23.7l-.24-.89H30.2L31.88,29v0H21.26v0Zm-.6-.41-.2,0h-.33l.27,1a3,3,0,0,0,.42,0,.5.5,0,0,0,.42-.57A.51.51,0,0,0,19.21,23.29Zm11.86-1.11a.5.5,0,0,0-.48-.37H18.92a.54.54,0,0,0-.4.2.5.5,0,0,0-.08.43l.24.89.27,1a3,3,0,0,0,.42,0,.5.5,0,0,0,.42-.57h0l-.24-.89H30.2L31.88,29h1Zm0,0a.5.5,0,0,0-.48-.37H18.92a.54.54,0,0,0-.4.2.5.5,0,0,0-.08.43l.24.89H19l.2,0a.51.51,0,0,1,.58.42h0l-.24-.89H30.2L31.88,29h1Z"/><path class="cls-1" d="M41,33.42V50.5a.5.5,0,0,1-.5.5H37.72a.5.5,0,0,1,0-1H40V33.42a.5.5,0,0,1,.5-.5A.5.5,0,0,1,41,33.42Z"/><path class="cls-1" d="M32.81,51H28.52a.5.5,0,1,1,0-1h4.29a.5.5,0,0,1,0,1Z"/><path class="cls-1" d="M23.72,51H2.8a.5.5,0,0,1-.5-.5V33.42a.5.5,0,0,1,.5-.5.5.5,0,0,1,.5.5V50H23.72a.5.5,0,0,1,0,1Z"/><path class="cls-1" d="M22.32,10,18.17,5.88V.5a.5.5,0,0,0-.5-.5H.5A.5.5,0,0,0,0,.5V12.08a.5.5,0,0,0,.5.5H17.67a.5.5,0,0,0,.5-.5v-1.2H22a.51.51,0,0,0,.36-.86Zm-4.65-.14a.5.5,0,0,0-.5.5v1.2H1V1H17.17V6.08a.49.49,0,0,0,.15.36l3.44,3.44Z"/></g></g></svg>