<?xml version="1.0" encoding="utf-8"?>
<!-- Generator: Adobe Illustrator 24.1.2, SVG Export Plug-In . SVG Version: 6.00 Build 0)  -->
<svg version="1.1" id="Layer_1" xmlns="http://www.w3.org/2000/svg" xmlns:xlink="http://www.w3.org/1999/xlink" x="0px" y="0px"
	 viewBox="0 0 53.6 51.7" style="enable-background:new 0 0 53.6 51.7;" xml:space="preserve">
<style type="text/css">
	.st0{fill:#DC7F17;stroke:#DC7F17;stroke-width:0.5;stroke-miterlimit:10;}
</style>
<g id="Layer_2_1_">
	<g id="Layer_1-2">
		<g id="Layer_2-2">
			<g id="Layer_1-2-2">
				<path class="st0" d="M10.1,0.4c3.2,0,5.8,2.6,5.8,5.8s-2.6,5.8-5.8,5.8c-3.2,0-5.8-2.6-5.8-5.8C4.2,3,6.9,0.4,10.1,0.4z
					 M10.1,11.1c2.7,0,4.8-2.2,4.8-4.8s-2.2-4.8-4.8-4.8c-2.7,0-4.8,2.2-4.8,4.8c0,0,0,0,0,0l0,0C5.2,8.9,7.4,11.1,10.1,11.1z"/>
				<rect x="14.9" y="33.2" class="st0" width="1" height="1"/>
				<path class="st0" d="M9.6,35.2v13c0,0.6,0.2,1.2,0.5,1.7c0.8,1.2,2.3,1.8,3.7,1.3c0.6-0.2,1.1-0.5,1.4-1h-1.6
					c-0.3,0.1-0.6,0.2-0.8,0.2h-0.3c-1-0.2-1.8-1-1.8-2.1V35.2c0-0.3-0.2-0.5-0.5-0.5S9.6,35,9.6,35.2z"/>
				<path class="st0" d="M7.4,51.4c1.7,0,3.2-1.4,3.2-3.1c0,0,0,0,0,0l0,0c0-0.3-0.2-0.5-0.5-0.5S9.6,48,9.6,48.3
					c0,1.2-1,2.2-2.2,2.2c-1.2,0-2.2-1-2.2-2.2c0,0,0,0,0,0V29.3c0-0.3-0.2-0.5-0.5-0.5s-0.5,0.2-0.5,0.5v18.9
					C4.2,50,5.6,51.4,7.4,51.4z"/>
				<path class="st0" d="M18.5,15.8l0.1,0c-0.2-0.2-0.4-0.3-0.6-0.5c-0.2-0.1-0.3-0.2-0.5-0.3c-0.7-0.4-1.4-0.6-2.1-0.6
					c-0.3,0-0.5,0.2-0.5,0.5s0.2,0.5,0.5,0.5c0.3,0,0.5,0,0.8,0.1c0.4,0.1,0.8,0.3,1.2,0.5C17.7,15.9,18.1,15.8,18.5,15.8z"/>
				<path class="st0" d="M14.9,29.5c0,0.2,0,0.4,0.1,0.6l0,0c0.3,1.1,1.3,1.8,2.4,1.8c0.2,0,0.4,0,0.6-0.1l0,0
					c0.5-0.4,0.9-0.9,1-1.6h0.7c0.1-0.3,0.2-0.6,0.2-0.9v-0.1h-1v0.1c0,0.3-0.1,0.6-0.3,0.9l0,0c-0.2,0.3-0.6,0.6-1,0.6l-0.7,0.6
					l-1-0.3c-0.5-0.2-0.9-0.8-0.9-1.3"/>
				<path class="st0" d="M2.8,31.9c1.4,0,2.5-1.1,2.5-2.5v-8.5c0-0.3-0.2-0.5-0.5-0.5c-0.3,0-0.5,0.2-0.5,0.5v8.5
					c0,0.8-0.7,1.5-1.5,1.5s-1.5-0.7-1.5-1.5V19c0-1.9,1.6-3.5,3.5-3.5l10.6,0c0.3,0,0.5-0.2,0.5-0.5c0-0.3-0.2-0.5-0.5-0.5l-10.6,0
					c-2.5,0-4.5,2-4.5,4.5v10.4C0.2,30.8,1.4,31.9,2.8,31.9z"/>
				<path class="st0" d="M23.9,0.8c3.2,0,5.8,2.6,5.8,5.8s-2.6,5.8-5.8,5.8S18,9.9,18,6.7l0,0l0,0C18,3.4,20.6,0.8,23.9,0.8z
					 M23.9,11.5c2.7,0,4.8-2.2,4.8-4.8c0-2.7-2.2-4.8-4.8-4.8C21.2,1.8,19,4,19,6.6c0,0,0,0,0,0l0,0C19,9.3,21.2,11.5,23.9,11.5z
					 M23.9,0.8c3.2,0,5.8,2.6,5.8,5.8s-2.6,5.8-5.8,5.8S18,9.9,18,6.7l0,0l0,0C18,3.4,20.6,0.8,23.9,0.8z M23.9,11.5
					c2.7,0,4.8-2.2,4.8-4.8c0-2.7-2.2-4.8-4.8-4.8C21.2,1.8,19,4,19,6.6c0,0,0,0,0,0l0,0C19,9.3,21.2,11.5,23.9,11.5z"/>
				<path class="st0" d="M29.2,23.1c0.3,0,0.5-0.2,0.5-0.5v-1l1.6,1.4c0.2,0.2,0.5,0.2,0.7,0c0,0,0,0,0,0c0.2-0.2,0.1-0.5-0.1-0.7
					l-2.4-2c-0.2-0.2-0.5-0.1-0.7,0.1c-0.1,0.1-0.1,0.2-0.1,0.3v2C28.7,22.9,28.9,23.1,29.2,23.1C29.2,23.1,29.2,23.1,29.2,23.1
					L29.2,23.1z"/>
				<path class="st0" d="M18,15.3L18,15.3c0,0.3,0.2,0.5,0.5,0.5h8.8c1.1,0,2.1,0.3,2.9,1l3.5,3c0.5,0.4,1.2,0.4,1.7,0l3.2-2.8
					c0.6-0.5,1.4-0.5,2-0.1c0.3,0.3,0.5,0.7,0.5,1.1c0,0.4-0.2,0.9-0.5,1.1l-4.2,3.6c-0.5,0.4-1.2,0.7-1.8,0.7h-0.5
					c-0.3,0-0.5,0.1-0.6,0.4s0.1,0.5,0.4,0.6l0,0c0.1,0,0.3,0,0.4,0h0.2c0.9,0,1.8-0.3,2.5-0.9l4.2-3.6c1.1-0.9,1.2-2.5,0.3-3.5
					c-0.1-0.1-0.2-0.2-0.3-0.3c-1-0.8-2.4-0.7-3.3,0.1l-3.3,2.8c-0.1,0.1-0.3,0.1-0.4,0l-3.5-2.9c-1-0.8-2.2-1.3-3.5-1.3h-8.9
					C18.2,14.9,18.1,15.1,18,15.3z"/>
				<path class="st0" d="M14,19.4v10.4c0,0.2,0,0.3,0,0.5c0.1,0.5,0.4,1,0.8,1.4c0.9,0.8,2.2,0.8,3.1,0.1c0.5-0.4,0.9-0.9,1-1.6
					c0-0.1,0-0.3,0-0.4v-0.6h-0.5c-0.3,0-0.5,0.2-0.5,0.5v0.1c0,0.1,0,0.3-0.1,0.6c0,0.1-0.1,0.3-0.3,0.5C17,31.4,16,31.2,16,31.2
					c-0.2-0.1-0.5-0.2-0.8-0.5C15,30.3,15,29.9,15,29.8V19.4c0-1.5,1-2.8,2.4-3.3c0.4-0.1,1-0.3,1.4-0.3l-0.2,0
					c0.2,0,0.4-0.2,0.4-0.4c0-0.3-0.2-0.5-0.5-0.5h-0.1c-0.3,0-0.6,0-0.9,0.1C15.5,15.5,14,17.3,14,19.4L14,19.4z"/>
				<path class="st0" d="M10.1,29.8v3.9c0,0.3,0.2,0.5,0.5,0.5h28.2c0.3,0,0.5-0.2,0.5-0.5s-0.2-0.5-0.5-0.5H11.1v-2.9h3.4
					c0.1,0,0.2,0,0.3-0.1l0.1-0.1l0,0c0-0.1,0.1-0.2,0.1-0.2v-0.1c0-0.1-0.1-0.2-0.2-0.3c-0.1-0.1-0.2-0.1-0.3-0.1h-3.9
					C10.3,29.3,10.1,29.5,10.1,29.8z"/>
				<path class="st0" d="M18,29.7L18,29.7c0,0.3,0.2,0.5,0.5,0.5h33.8v2.9h-7.2c-0.3,0-0.5,0.2-0.5,0.5s0.2,0.5,0.5,0.5h7.7
					c0.3,0,0.5-0.2,0.5-0.5v-3.9c0-0.3-0.2-0.5-0.5-0.5H18.5C18.3,29.3,18.1,29.5,18,29.7z"/>
				<path class="st0" d="M22.3,22.4c0.1-0.2,0.3-0.4,0.5-0.4h11.7c0.2,0,0.3,0.1,0.4,0.2c0.1,0.1,0.1,0.3,0.1,0.4l-0.2,0.9h-0.5
					c-0.3,0-0.5,0.2-0.5,0.4l0,0l0.2-0.9H23.2l-1.7,6.1h-1L22.3,22.4z M22.3,22.4c0.1-0.2,0.3-0.4,0.5-0.4h11.7
					c0.2,0,0.3,0.1,0.4,0.2c0.1,0.1,0.1,0.3,0.1,0.4l-0.2,0.9l-0.3,1c-0.1,0-0.3,0-0.4,0c-0.3-0.1-0.4-0.3-0.4-0.6l0,0l0.2-0.9H23.2
					l-1.7,6.1h-1L22.3,22.4z M31.6,23.1c0.1,0,0.3-0.1,0.4-0.2c0.2-0.2,0.1-0.5-0.1-0.7l-0.1-0.1h2.7c0.2,0,0.3,0.1,0.4,0.2
					c0.1,0.1,0.1,0.3,0.1,0.4l-0.2,0.9l-0.3,1c-0.1,0-0.3,0-0.4,0c-0.3,0-0.5-0.3-0.4-0.6l0,0l0.2-0.9L31.6,23.1z M34.2,23.5h0.5
					l-0.3,1c-0.1,0-0.3,0-0.4,0c-0.3,0-0.4-0.3-0.4-0.5l0,0C33.7,23.7,33.9,23.5,34.2,23.5C34.2,23.6,34.2,23.6,34.2,23.5L34.2,23.5
					z M20.4,29.6l0.1-0.4l1.8-6.8c0.1-0.2,0.3-0.4,0.5-0.4h11.6c0.2,0,0.3,0.1,0.4,0.2c0.1,0.1,0.1,0.3,0.1,0.4l-0.2,0.9l-0.3,1
					l-1.3,4.7L33,29.9c0,0.2-0.2,0.3-0.4,0.4c0,0-0.1,0-0.1,0H20.7c-0.1,0-0.2-0.1-0.3-0.2C20.4,29.9,20.3,29.8,20.4,29.6L20.4,29.6
					z M33.6,24l0.2-0.9H23.2l-1.7,6.2h10.6L33.6,24z M34.2,23.6h0.5l-0.3,1c-0.1,0-0.3,0-0.4,0c-0.3-0.1-0.4-0.3-0.4-0.6l0,0
					C33.7,23.7,33.9,23.5,34.2,23.6C34.2,23.6,34.2,23.6,34.2,23.6L34.2,23.6z M22.3,22.5c0.1-0.2,0.3-0.4,0.5-0.4h11.7
					c0.2,0,0.3,0.1,0.4,0.2c0.1,0.1,0.1,0.3,0.1,0.4l-0.2,0.9l-0.3,1c-0.1,0-0.3,0-0.4,0c-0.3-0.1-0.4-0.3-0.4-0.6c0,0,0,0,0,0l0,0
					l0.2-0.9H23.2l-1.7,6.1h-1L22.3,22.5z M22.3,22.5c0.1-0.2,0.3-0.4,0.5-0.4h11.7c0.2,0,0.3,0.1,0.4,0.2c0.1,0.1,0.1,0.3,0.1,0.4
					l-0.2,0.9h-0.5c-0.2,0-0.5,0.1-0.5,0.4l0,0l0.2-0.9H23.2l-1.7,6.1h-1L22.3,22.5z"/>
				<path class="st0" d="M12.4,33.7v17.1c0,0.3,0.2,0.5,0.5,0.5h2.8c0.3,0,0.5-0.2,0.5-0.5s-0.2-0.5-0.5-0.5h-2.3V33.7
					c0-0.3-0.2-0.5-0.5-0.5S12.4,33.4,12.4,33.7L12.4,33.7z"/>
				<path class="st0" d="M20.6,51.2h4.3c0.3,0,0.5-0.2,0.5-0.5s-0.2-0.5-0.5-0.5h-4.3c-0.3,0-0.5,0.2-0.5,0.5S20.3,51.2,20.6,51.2z"
					/>
				<path class="st0" d="M29.6,51.2h21c0.3,0,0.5-0.2,0.5-0.5V33.7c0-0.3-0.2-0.5-0.5-0.5s-0.5,0.2-0.5,0.5v16.6H29.6
					c-0.3,0-0.5,0.2-0.5,0.5S29.4,51.2,29.6,51.2z"/>
				<path class="st0" d="M31.1,10.2l4.1-4.1V0.8c0-0.3,0.2-0.5,0.5-0.5h17.2c0.3,0,0.5,0.2,0.5,0.5v11.6c0,0.3-0.2,0.5-0.5,0.5H35.7
					c-0.3,0-0.5-0.2-0.5-0.5v-1.2h-3.8c-0.3,0-0.5-0.2-0.5-0.5c0,0,0,0,0,0C30.9,10.5,30.9,10.4,31.1,10.2L31.1,10.2z M35.7,10.1
					c0.3,0,0.5,0.2,0.5,0.5v1.2h16.2V1.2H36.2v5.1c0,0.1-0.1,0.3-0.1,0.4l-3.4,3.4L35.7,10.1z"/>
			</g>
		</g>
	</g>
</g>
</svg>
