<svg xmlns="http://www.w3.org/2000/svg" width="36.003" height="35.998" viewBox="0 0 36.003 35.998">
  <path id="Exclusion_1" data-name="Exclusion 1" d="M-14861.5,36h-31a2.5,2.5,0,0,1-2.5-2.5V2.5a2.5,2.5,0,0,1,2.5-2.5h31a2.5,2.5,0,0,1,2.5,2.5v31A2.5,2.5,0,0,1-14861.5,36ZM-14882,3.7a3.267,3.267,0,0,0-3.264,3.263v22.2a3.269,3.269,0,0,0,3.264,3.267h10.451a3.269,3.269,0,0,0,3.264-3.267V6.96a3.267,3.267,0,0,0-3.264-3.263Zm5.226,27.427a1.961,1.961,0,0,1-1.959-1.959,1.961,1.961,0,0,1,1.959-1.959,1.961,1.961,0,0,1,1.959,1.959A1.961,1.961,0,0,1-14876.77,31.124Zm5.876-5.222h-11.752V7.615h11.752V25.9Z" transform="translate(14895.001)" fill="#fff" opacity="0.9"/>
</svg>
