<svg xmlns="http://www.w3.org/2000/svg" viewBox="0 0 31.87 46.82"><defs><style>.cls-1{fill:#dc7f17;}</style></defs><g id="Layer_2" data-name="Layer 2"><g id="Layer_1-2" data-name="Layer 1"><path class="cls-1" d="M21,8.84a.25.25,0,0,1-.25-.25V2.72a.25.25,0,1,1,.5,0V8.59A.25.25,0,0,1,21,8.84Z"/><path class="cls-1" d="M14.11,31.3H1.8a.25.25,0,0,1-.25-.25V2.72a.25.25,0,1,1,.5,0V30.8H14.11a.25.25,0,0,1,.25.25A.25.25,0,0,1,14.11,31.3Z"/><path class="cls-1" d="M21,19.5a.25.25,0,0,1-.25-.25V17.76a.25.25,0,0,1,.5,0v1.49A.25.25,0,0,1,21,19.5Z"/><path class="cls-1" d="M21,18a4.84,4.84,0,1,1,4.84-4.84A4.84,4.84,0,0,1,21,18Zm0-9.17a4.34,4.34,0,1,0,4.34,4.33A4.34,4.34,0,0,0,21,8.84Z"/><path class="cls-1" d="M23.75,46.82h-.23a2.38,2.38,0,0,1-2.06-2.39V32.54a.52.52,0,1,0-1,0v12a2.3,2.3,0,0,1-.8,1.75,2.33,2.33,0,0,1-1.87.51,2.36,2.36,0,0,1-1.9-2.37V24.78L13.94,26.7a2.36,2.36,0,0,1-3.24,0L6.91,22.91a2.25,2.25,0,0,1-.66-1.8,2.29,2.29,0,0,1,1-1.69,2.37,2.37,0,0,1,3,.33l2.1,2.09,2.17-2.17A2.29,2.29,0,0,1,16.11,19h9.68a2.29,2.29,0,0,1,1.62.67l3.79,3.79a.25.25,0,0,1,0,.36.26.26,0,0,1-.35,0L27.06,20a1.79,1.79,0,0,0-1.27-.53H16.11a1.79,1.79,0,0,0-1.27.53l-2.35,2.35a.26.26,0,0,1-.35,0L9.87,20.1a1.88,1.88,0,0,0-2.38-.27,1.8,1.8,0,0,0-.75,1.32,1.82,1.82,0,0,0,.52,1.41l3.79,3.79a1.84,1.84,0,0,0,2.53,0L15.93,24a.25.25,0,0,1,.27-.06.25.25,0,0,1,.16.23V44.42a1.87,1.87,0,0,0,1.48,1.88,1.79,1.79,0,0,0,2.09-1.77v-12a1,1,0,1,1,2,0V44.42a1.87,1.87,0,0,0,1.61,1.89A1.75,1.75,0,0,0,25,45.86a1.77,1.77,0,0,0,.59-1.33V27.12a.25.25,0,1,1,.5,0V44.53a2.28,2.28,0,0,1-.75,1.7A2.31,2.31,0,0,1,23.75,46.82Z"/><path class="cls-1" d="M29.58,27.37H24.22a2.29,2.29,0,1,1,0-4.58H26.9a.25.25,0,0,1,.25.25.25.25,0,0,1-.25.25H24.22a1.79,1.79,0,1,0,0,3.58h5.36a1.79,1.79,0,0,0,1.27-3.05.25.25,0,1,1,.35-.35,2.26,2.26,0,0,1,.67,1.61A2.3,2.3,0,0,1,29.58,27.37Z"/><path class="cls-1" d="M4.56,46.82a1.48,1.48,0,0,1-1.48-1.49V33.05a.25.25,0,0,1,.25-.25.25.25,0,0,1,.25.25V45.33a1,1,0,1,0,2,0V33.05a.25.25,0,0,1,.5,0V45.33A1.49,1.49,0,0,1,4.56,46.82Z"/><path class="cls-1" d="M22.5,3H.25A.25.25,0,0,1,0,2.72V.25A.25.25,0,0,1,.25,0H22.5a.25.25,0,0,1,.25.25V2.72A.25.25,0,0,1,22.5,3Zm-22-.5H22.25V.5H.5Z"/></g></g></svg>