<svg xmlns="http://www.w3.org/2000/svg" viewBox="0 0 32.37 47.33"><defs><style>.cls-1{fill:#dc7f17;stroke:#dc7f17;stroke-miterlimit:10;stroke-width:0.5px;}</style></defs><g id="Layer_2" data-name="Layer 2"><g id="Layer_1-2" data-name="Layer 1"><g id="Layer_2-2" data-name="Layer 2"><g id="Layer_1-2-2" data-name="Layer 1-2"><path class="cls-1" d="M21.25,9.09A.25.25,0,0,1,21,8.84V3a.25.25,0,1,1,.5,0V8.84A.25.25,0,0,1,21.25,9.09Z"/><path class="cls-1" d="M14.36,31.55H2.05a.25.25,0,0,1-.25-.25V3a.25.25,0,0,1,.5,0V31.05H14.36a.25.25,0,0,1,0,.5Z"/><path class="cls-1" d="M21.25,19.75A.25.25,0,0,1,21,19.5V18a.25.25,0,0,1,.5,0V19.5A.25.25,0,0,1,21.25,19.75Z"/><path class="cls-1" d="M21.25,18.25a4.84,4.84,0,1,1,4.84-4.84h0A4.84,4.84,0,0,1,21.25,18.25Zm0-9.17a4.34,4.34,0,1,0,4.34,4.34h0a4.34,4.34,0,0,0-4.34-4.32Z"/><path class="cls-1" d="M24,47.07h-.23a2.39,2.39,0,0,1-2.06-2.39V32.79a.51.51,0,0,0-.36-.64.52.52,0,0,0-.64.35.71.71,0,0,0,0,.29v12a2.31,2.31,0,0,1-.8,1.75,2.34,2.34,0,0,1-1.87.51,2.37,2.37,0,0,1-1.9-2.37V25l-2,1.92A2.36,2.36,0,0,1,11,27L7.16,23.16a2.24,2.24,0,0,1-.66-1.8,2.28,2.28,0,0,1,1-1.69,2.38,2.38,0,0,1,3,.33l2.1,2.09,2.17-2.17a2.3,2.3,0,0,1,1.59-.67H26a2.29,2.29,0,0,1,1.62.67l3.79,3.79a.25.25,0,0,1,0,.35h0a.26.26,0,0,1-.35,0l-3.79-3.82A1.77,1.77,0,0,0,26,19.72H16.36a1.79,1.79,0,0,0-1.27.53L12.74,22.6a.26.26,0,0,1-.35,0l-2.27-2.25a1.88,1.88,0,0,0-2.38-.27,1.79,1.79,0,0,0-.23,2.73L11.3,26.6a1.84,1.84,0,0,0,2.53,0l2.35-2.35a.25.25,0,0,1,.27-.06.25.25,0,0,1,.16.23V44.67a1.88,1.88,0,0,0,1.48,1.88,1.79,1.79,0,0,0,2.07-1.46c0-.11,0-.21,0-.31v-12a1,1,0,0,1,2,0V44.67a1.86,1.86,0,0,0,1.61,1.89,1.74,1.74,0,0,0,1.46-.45,1.77,1.77,0,0,0,.59-1.33V27.37a.25.25,0,0,1,.5,0V44.78a2.28,2.28,0,0,1-.75,1.7A2.31,2.31,0,0,1,24,47.07Z"/><path class="cls-1" d="M29.83,27.62H24.47a2.29,2.29,0,1,1,0-4.58h2.68a.25.25,0,0,1,0,.5H24.47a1.79,1.79,0,1,0,0,3.58h5.36a1.79,1.79,0,0,0,1.27-3.05.25.25,0,1,1,.3-.4.12.12,0,0,1,.05,0,2.28,2.28,0,0,1,.67,1.61A2.3,2.3,0,0,1,29.83,27.62Z"/><path class="cls-1" d="M4.81,47.07a1.48,1.48,0,0,1-1.48-1.48h0V33.3a.25.25,0,0,1,.5,0V45.58a1,1,0,0,0,2,0V33.3a.25.25,0,0,1,.5,0V45.58a1.49,1.49,0,0,1-1.49,1.49Z"/><path class="cls-1" d="M22.75,3.25H.5A.25.25,0,0,1,.25,3V.5A.25.25,0,0,1,.5.25H22.75A.25.25,0,0,1,23,.5V3a.25.25,0,0,1-.22.28Zm-22-.5H22.5v-2H.75Z"/></g></g></g></g></svg>