<svg xmlns="http://www.w3.org/2000/svg" viewBox="0 0 111.91 112.1"><defs><style>.cls-1{fill:#dc7f17;}</style></defs><g id="Layer_2" data-name="Layer 2"><g id="Layer_1-2" data-name="Layer 1"><path class="cls-1" d="M47.72,103.82A39.44,39.44,0,1,1,87.16,63.58a1.53,1.53,0,0,1-1.51,1.56h0a1.53,1.53,0,0,1-1.53-1.5A36.35,36.35,0,1,0,66.48,95.56a1.53,1.53,0,1,1,1.58,2.62A39.38,39.38,0,0,1,47.72,103.82Z"/><path class="cls-1" d="M47.72,112.1A47.72,47.72,0,1,1,95.44,64.38c0,1.07,0,2.14-.11,3.19a1.53,1.53,0,1,1-3-.2c.06-1,.09-2,.09-3a44.64,44.64,0,1,0-18.23,36A1.53,1.53,0,0,1,76,102.85,47.37,47.37,0,0,1,47.72,112.1Z"/><path class="cls-1" d="M58.25,11.92H37.19a1.54,1.54,0,0,1-1.54-1.54V1.53A1.54,1.54,0,0,1,37.19,0H58.25a1.54,1.54,0,0,1,1.54,1.53v8.85A1.54,1.54,0,0,1,58.25,11.92ZM38.72,8.85h18V3.06h-18Z"/><path class="cls-1" d="M52.17,19.73h-8.9a1.53,1.53,0,0,1-1.53-1.54V10.38a1.53,1.53,0,0,1,1.53-1.53h8.9a1.53,1.53,0,0,1,1.53,1.53v7.81A1.53,1.53,0,0,1,52.17,19.73ZM44.8,16.66h5.84V11.92H44.8Z"/><path class="cls-1" d="M14.45,33.88a1.53,1.53,0,0,1-1.09-.45L6.29,26.36a1.53,1.53,0,1,1,2.17-2.17l7.07,7.07a1.54,1.54,0,0,1-1.08,2.62Z"/><path class="cls-1" d="M3.84,30.35a1.53,1.53,0,0,1-1.08-2.61l7.07-7.08A1.53,1.53,0,1,1,12,22.83L4.93,29.9A1.53,1.53,0,0,1,3.84,30.35Z"/><path class="cls-1" d="M81,33.88A1.54,1.54,0,0,1,80,31.26L87,24.19a1.53,1.53,0,0,1,2.17,0,1.55,1.55,0,0,1,0,2.17l-7.08,7.07A1.52,1.52,0,0,1,81,33.88Z"/><path class="cls-1" d="M91.64,30.35a1.52,1.52,0,0,1-1.08-.45l-7.08-7.07a1.55,1.55,0,0,1,0-2.17,1.53,1.53,0,0,1,2.17,0l7.08,7.08a1.53,1.53,0,0,1-1.09,2.61Z"/><path class="cls-1" d="M47.72,65.91a1.53,1.53,0,0,1-1.37-.85L35.81,43.8a1.53,1.53,0,0,1,2.75-1.36l9.66,19.49,9-7.8a1.53,1.53,0,0,1,2.16.16,1.52,1.52,0,0,1-.16,2.16L48.72,65.54A1.55,1.55,0,0,1,47.72,65.91Z"/><path class="cls-1" d="M81.26,104.05a21.23,21.23,0,1,1,21.23-21.23A21.26,21.26,0,0,1,81.26,104.05Zm0-39.39A18.16,18.16,0,1,0,99.43,82.82,18.19,18.19,0,0,0,81.26,64.66Z"/><path class="cls-1" d="M110.38,112.1a1.53,1.53,0,0,1-1.09-.45L94.77,97.13a1.53,1.53,0,0,1,0-2.17,1.55,1.55,0,0,1,2.17,0l14.52,14.52a1.54,1.54,0,0,1-1.08,2.62Z"/></g></g></svg>