<svg xmlns="http://www.w3.org/2000/svg" viewBox="0 0 44.56 38.56"><defs><style>.cls-1{fill:#dc7f17;}</style></defs><g id="Layer_2" data-name="Layer 2"><g id="Layer_1-2" data-name="Layer 1"><path class="cls-1" d="M12,4.84A4.84,4.84,0,1,1,7.12,0,4.84,4.84,0,0,1,12,4.84Zm-9.17,0A4.34,4.34,0,1,0,7.12.5,4.34,4.34,0,0,0,2.79,4.84Z"/><path class="cls-1" d="M36.8,23.49h.38a.23.23,0,0,0,.24-.22A1,1,0,0,0,36.8,23.49ZM37.4,9.2a3.59,3.59,0,0,1-.47,0v2.07h.5v-2ZM14.6,2.48a.25.25,0,0,0-.25.25V10l-.56.14a18,18,0,0,1-4.27.52H2.29A2.29,2.29,0,0,0,0,13V23.68a2.28,2.28,0,0,0,2,2.26V36.2a2.29,2.29,0,0,0,.75,1.7,2.27,2.27,0,0,0,1.53.59h.24a2.38,2.38,0,0,0,2.05-2.4V24.21a.52.52,0,1,1,1,0v12a2.3,2.3,0,0,0,2.67,2.26,2.38,2.38,0,0,0,1.91-2.37V15.23l.3-.05,1.83-.46v8.52a.25.25,0,0,0,.25.25H32.83V23h-18V14.6l2.87-.72h.05a2.32,2.32,0,0,0,1.65-1.78l1-5.27A2.31,2.31,0,0,0,20,5a2.22,2.22,0,0,0-1.63-.89,2.36,2.36,0,0,0-2.46,2L15.19,9.8l-.34.08V3H33.56a2.76,2.76,0,0,1,.28-.5Zm.87,7.76a.25.25,0,0,0,.19-.19l.73-3.87a1.89,1.89,0,0,1,1.93-1.57,1.79,1.79,0,0,1,1.27.71,1.74,1.74,0,0,1,.33,1.41l-1,5.26a1.78,1.78,0,0,1-1.33,1.4l-.05,0L12.4,14.69a1.81,1.81,0,0,1-.43.05.25.25,0,0,0-.25.25v21.1A1.86,1.86,0,0,1,10.23,38a1.76,1.76,0,0,1-1.46-.4,1.79,1.79,0,0,1-.63-1.36v-12a1,1,0,1,0-2,0V36.08A1.87,1.87,0,0,1,4.51,38a1.77,1.77,0,0,1-1.39-.45,1.82,1.82,0,0,1-.58-1.33V25.94a2.28,2.28,0,0,0,2-2.26V15a.25.25,0,0,0-.25-.25.25.25,0,0,0-.25.25v8.72a1.79,1.79,0,1,1-3.57,0V13a1.79,1.79,0,0,1,1.79-1.79H9.52a18,18,0,0,0,4.39-.54Z"/><path class="cls-1" d="M42,3.44h0a4.78,4.78,0,0,0-.68-1.37,4.84,4.84,0,0,0-8.15.42,4.66,4.66,0,0,0-.25.5,4.93,4.93,0,0,0-.38,1.88A4.67,4.67,0,0,0,33,6.77s0,0,0,0a3.84,3.84,0,0,0,.42.77,3.37,3.37,0,0,0,.28.38c.11.13.23.26.35.38h0a4.75,4.75,0,0,0,2.9,1.4l.5,0a4.84,4.84,0,0,0,4.83-4.84A4.44,4.44,0,0,0,42,3.44ZM37.43,9.2h0a3.59,3.59,0,0,1-.47,0A4.26,4.26,0,0,1,34.37,8a3.49,3.49,0,0,1-.32-.35l-.25-.33a3.35,3.35,0,0,1-.21-.36,2.49,2.49,0,0,1-.16-.33,2.74,2.74,0,0,1-.15-.4,4.57,4.57,0,0,1-.19-1.29A4.08,4.08,0,0,1,33.56,3a2.76,2.76,0,0,1,.28-.5,4.34,4.34,0,0,1,7.45.46,2.55,2.55,0,0,1,.13.29,2.3,2.3,0,0,1,.12.34,4.25,4.25,0,0,1,.2,1.29A4.34,4.34,0,0,1,37.43,9.2Z"/><path class="cls-1" d="M36.8,23.49h.38a.23.23,0,0,0,.24-.22A1,1,0,0,0,36.8,23.49Zm7.55-11.4a2.11,2.11,0,0,0-.31-.52,2.3,2.3,0,0,0-1.8-.88H32.56A2.3,2.3,0,0,0,30.27,13v3.9L26.73,18.5a2.29,2.29,0,0,0,1,4.37,2.34,2.34,0,0,0,1-.21l1.63-.75.5-.23,1.53-.7v1.64a.3.3,0,0,0,0,.1V36.17a2.36,2.36,0,0,0,1.91,2.36A2.3,2.3,0,0,0,36.1,38a2.27,2.27,0,0,0,.81-1.75v-12a.52.52,0,0,1,1,0V36.17a2.36,2.36,0,0,0,1.91,2.36,2.29,2.29,0,0,0,2.67-2.26V26a2.3,2.3,0,0,0,2-2.28V13A2.15,2.15,0,0,0,44.35,12.09ZM44,23.7a1.79,1.79,0,0,1-1.79,1.79,1.77,1.77,0,0,1-1.38-.66.05.05,0,0,1,0,0,1.38,1.38,0,0,1-.2-.33,1.82,1.82,0,0,1-.14-.7V15a.25.25,0,0,0,0-.15s0,0,0,0a.24.24,0,0,0-.21-.12A.25.25,0,0,0,40,15V23.7a2.15,2.15,0,0,0,.21.94,1,1,0,0,0,.07.15l.11.19s0,0,0,.05a.64.64,0,0,1,.1.13A2.22,2.22,0,0,0,42,26v7.35a.27.27,0,0,0,0,.12v2.78a1.79,1.79,0,0,1-.63,1.37,1.83,1.83,0,0,1-1.46.4,1.86,1.86,0,0,1-1.49-1.87V24.28a1,1,0,0,0-1-1h0a1,1,0,0,0-1,1v12a1.79,1.79,0,0,1-.63,1.37,1.83,1.83,0,0,1-1.46.4,1.86,1.86,0,0,1-1.49-1.87V15a.19.19,0,0,0,0-.12.2.2,0,0,0-.11-.11.19.19,0,0,0-.12,0,.25.25,0,0,0-.25.25v5.42l-1.53.7-.5.23-1.84.85A1.79,1.79,0,1,1,26.94,19l3.35-1.55.33-.15a.25.25,0,0,0,.15-.22V13a1.79,1.79,0,0,1,1.69-1.78.19.19,0,0,0,.12,0h9.69a1.78,1.78,0,0,1,1.47.78,1.17,1.17,0,0,1,.15.27A1.77,1.77,0,0,1,44,13Zm-7.23-.21h.38a.23.23,0,0,0,.24-.22A1,1,0,0,0,36.8,23.49Z"/></g></g></svg>