<svg xmlns="http://www.w3.org/2000/svg" viewBox="0 0 44.99 39.06"><defs><style>.cls-1{fill:#dc7f17;stroke:#dc7f17;stroke-miterlimit:10;stroke-width:0.5px;}</style></defs><g id="Layer_2" data-name="Layer 2"><g id="Layer_1-2" data-name="Layer 1"><g id="Layer_2-2" data-name="Layer 2"><g id="Layer_1-2-2" data-name="Layer 1-2"><path class="cls-1" d="M12.25,5.09A4.84,4.84,0,1,1,7.37.25a4.84,4.84,0,0,1,4.88,4.84Zm-9.17,0A4.34,4.34,0,1,0,7.42.75h0A4.35,4.35,0,0,0,3,5.09Z"/><path class="cls-1" d="M37.05,23.74h.38a.23.23,0,0,0,.24-.22h0A1,1,0,0,0,37.05,23.74Zm.6-14.29a3.69,3.69,0,0,1-.47,0v2.07h.5v-2ZM14.85,2.73A.25.25,0,0,0,14.6,3v7.27l-.56.14a18.08,18.08,0,0,1-4.27.52H2.54A2.29,2.29,0,0,0,.25,13.2V23.93a2.28,2.28,0,0,0,2,2.26V36.45A2.29,2.29,0,0,0,3,38.15a2.27,2.27,0,0,0,1.53.59h.24a2.39,2.39,0,0,0,2.05-2.4V24.46a.51.51,0,0,1,.36-.64.52.52,0,0,1,.64.35.48.48,0,0,1,0,.29v12a2.3,2.3,0,0,0,2.31,2.29,2.19,2.19,0,0,0,.36,0,2.37,2.37,0,0,0,1.91-2.37V15.48l.3-.05L14.53,15v8.52a.25.25,0,0,0,.25.25h18.3v-.49h-18v-8.4L18,14.13H18a2.32,2.32,0,0,0,1.65-1.78l1-5.27a2.3,2.3,0,0,0-.4-1.83,2.21,2.21,0,0,0-1.63-.89,2.36,2.36,0,0,0-2.46,2l-.72,3.69-.34.08V3.25H33.81a3.05,3.05,0,0,1,.28-.5Zm.87,7.76a.23.23,0,0,0,.19-.19l.73-3.87a1.89,1.89,0,0,1,1.93-1.57,1.77,1.77,0,0,1,1.27.71A1.74,1.74,0,0,1,20.17,7l-1,5.26a1.77,1.77,0,0,1-1.33,1.4h-.05l-5.14,1.3a2,2,0,0,1-.43.05.25.25,0,0,0-.25.25v21.1a1.86,1.86,0,0,1-1.49,1.91A1.76,1.76,0,0,1,9,37.85a1.79,1.79,0,0,1-.63-1.36v-12a1,1,0,0,0-2,0V36.33a1.87,1.87,0,0,1-1.63,1.92,1.77,1.77,0,0,1-1.39-.45,1.82,1.82,0,0,1-.58-1.33V26.19a2.28,2.28,0,0,0,2-2.26V15.25a.25.25,0,0,0-.5,0V24a1.79,1.79,0,1,1-3.57.27,1.22,1.22,0,0,1,0-.27V13.25a1.79,1.79,0,0,1,1.79-1.79H9.77a18.07,18.07,0,0,0,4.39-.54Z"/><path class="cls-1" d="M42.25,3.69h0a4.74,4.74,0,0,0-.68-1.37,4.84,4.84,0,0,0-6.75-1.13,5,5,0,0,0-1.4,1.55,4.66,4.66,0,0,0-.25.5,4.86,4.86,0,0,0-.38,1.88A4.62,4.62,0,0,0,33.25,7h0a3.84,3.84,0,0,0,.42.77,3.37,3.37,0,0,0,.28.38c.11.13.23.26.35.38h0A4.71,4.71,0,0,0,37.2,10h.5a4.84,4.84,0,0,0,4.83-4.84A4.32,4.32,0,0,0,42.25,3.69ZM37.68,9.45h0a3.69,3.69,0,0,1-.47,0,4.23,4.23,0,0,1-2.59-1.2c-.11-.11-.22-.23-.32-.35l-.25-.33a3.35,3.35,0,0,1-.21-.36c-.06-.11-.11-.22-.16-.33a2.74,2.74,0,0,1-.15-.4,4.68,4.68,0,0,1-.19-1.29,4.09,4.09,0,0,1,.47-1.94,3.05,3.05,0,0,1,.28-.5,4.34,4.34,0,0,1,7.45.46,2.55,2.55,0,0,1,.13.29,2,2,0,0,1,.12.34,4.31,4.31,0,0,1-4.11,5.61Z"/><path class="cls-1" d="M37.05,23.74h.38a.23.23,0,0,0,.24-.22h0A1,1,0,0,0,37.05,23.74Zm7.55-11.4a2.11,2.11,0,0,0-.31-.52,2.3,2.3,0,0,0-1.8-.88H32.81a2.31,2.31,0,0,0-2.29,2.31h0v3.9L27,18.75a2.29,2.29,0,0,0,1,4.37,2.42,2.42,0,0,0,1-.21l1.63-.75.5-.23,1.53-.7v1.64a.17.17,0,0,0,0,.1V36.42a2.36,2.36,0,0,0,1.91,2.36,2.31,2.31,0,0,0,1.8-.53,2.27,2.27,0,0,0,.81-1.75v-12a.52.52,0,0,1,1,0V36.42a2.36,2.36,0,0,0,1.91,2.36,2.29,2.29,0,0,0,2.64-1.88,2.34,2.34,0,0,0,0-.38V26.25a2.31,2.31,0,0,0,2-2.28V13.25A2.17,2.17,0,0,0,44.6,12.34ZM44.25,24a1.79,1.79,0,0,1-1.79,1.79h0a1.76,1.76,0,0,1-1.38-.66h0a1.38,1.38,0,0,1-.2-.33,1.86,1.86,0,0,1-.14-.7v-8.8a.2.2,0,0,0,0-.15h0a.24.24,0,0,0-.21-.12.25.25,0,0,0-.28.22V24a2.15,2.15,0,0,0,.21.94,1,1,0,0,0,.07.15l.11.19v.05a.64.64,0,0,1,.1.13,2.21,2.21,0,0,0,1.51.84V33.6a.24.24,0,0,0,0,.12V36.5a1.79,1.79,0,0,1-.63,1.37,1.84,1.84,0,0,1-1.46.4,1.87,1.87,0,0,1-1.49-1.87V24.53a1,1,0,0,0-1-1h0a1,1,0,0,0-1,1v12A1.79,1.79,0,0,1,36,37.9a1.84,1.84,0,0,1-1.46.4,1.87,1.87,0,0,1-1.49-1.87V15.25a.24.24,0,0,0,0-.12A.2.2,0,0,0,33,15h-.12a.25.25,0,0,0-.25.25v5.42l-1.53.7-.5.23-1.84.85A1.79,1.79,0,0,1,27,19.34l.19-.09,3.35-1.55.33-.15a.24.24,0,0,0,.15-.22V13.25a1.79,1.79,0,0,1,1.69-1.78h9.81a1.77,1.77,0,0,1,1.47.78,1.17,1.17,0,0,1,.15.27,1.65,1.65,0,0,1,.11.73ZM37,23.74h.38a.23.23,0,0,0,.24-.22h0a1.07,1.07,0,0,0-.59.22Z"/></g></g></g></g></svg>