<svg xmlns="http://www.w3.org/2000/svg" width="260" height="100" viewBox="0 0 260 100">
  <g id="Group_42" data-name="Group 42" transform="translate(-1509 837)">
    <rect id="Rectangle_26" data-name="Rectangle 26" width="260" height="100" transform="translate(1509 -837)" fill="#fefefe"/>
    <path id="Path_93" data-name="Path 93" d="M14.811,364.988H7v5.261h7.052V373.8H7v6.828H2.835V361.323H14.811v3.665Zm19.416,7.639c0,5.457-2.882,8.423-8.115,8.423-5.121,0-8.031-2.938-8.031-8.423v-11.3h4.17v11.333c0,2.994,1.455,4.645,3.946,4.645s3.918-1.651,3.918-4.645V361.323h4.113Zm13.05-6.24a4.111,4.111,0,0,0-3.414-1.874c-1.371,0-2.238.643-2.238,1.706-.028,1.4.924,1.9,3.442,2.967,3.134,1.343,4.841,2.63,4.841,5.96,0,3.3-2.518,5.9-6.912,5.9a7.42,7.42,0,0,1-6.464-3.274l2.518-2.742a4.654,4.654,0,0,0,3.862,2.323c1.763,0,2.658-.755,2.658-1.9,0-1.371-.867-2.126-3.022-2.939-2.911-1.175-5.149-2.63-5.149-6.1,0-3.19,2.546-5.513,6.3-5.513a7,7,0,0,1,6.072,2.91Zm15.193,0a4.112,4.112,0,0,0-3.414-1.874c-1.371,0-2.238.643-2.238,1.706-.028,1.4.923,1.9,3.441,2.967,3.134,1.343,4.841,2.63,4.841,5.96,0,3.3-2.519,5.9-6.912,5.9a7.42,7.42,0,0,1-6.464-3.274l2.519-2.742a4.654,4.654,0,0,0,3.861,2.323c1.763,0,2.659-.755,2.659-1.9,0-1.371-.867-2.126-3.022-2.939-2.91-1.175-5.149-2.63-5.149-6.1,0-3.19,2.547-5.513,6.3-5.513a7,7,0,0,1,6.072,2.91Zm12.539,14.243H68.293V361.323h6.3c4.533,0,6.8,1.931,6.8,5.009a4.285,4.285,0,0,1-3.106,4.449v.056a4.427,4.427,0,0,1,3.778,4.477c0,3.218-2.378,5.317-7.052,5.317Zm-.531-15.811H72.462V369.3h2.015c1.847,0,2.854-.867,2.854-2.3q0-2.183-2.854-2.183Zm.252,7.668H72.462v4.617h2.295c2.1,0,3.162-.84,3.162-2.323S76.827,372.488,74.729,372.488Zm20.909,4.365H88.81l-1.4,3.778H83.045l7.08-17.6-.728-1.706h4.422l7.751,19.308H97.037Zm-5.6-3.33h4.365l-2.154-5.877H92.2Zm17.8,3.358h7.051v3.75H103.667V361.323h4.169v15.558Zm13.6,0h7.052v3.75H117.265V361.323h4.169v15.558Zm7.052-7.555h7.275v3.3h-7.275Zm17.589,11.3h-6.716V361.323h6.3c4.533,0,6.8,1.931,6.8,5.009a4.285,4.285,0,0,1-3.106,4.449v.056a4.427,4.427,0,0,1,3.778,4.477C153.126,378.532,150.748,380.631,146.075,380.631Zm-.532-15.811h-2.014V369.3h2.014c1.847,0,2.854-.867,2.854-2.3Q148.4,364.82,145.543,364.82Zm.252,7.668h-2.266v4.617h2.294c2.1,0,3.162-.84,3.162-2.323s-1.092-2.295-3.19-2.295Zm26.257.139c0,5.457-2.882,8.423-8.115,8.423-5.121,0-8.031-2.938-8.031-8.423v-11.3h4.169v11.333c0,2.994,1.455,4.645,3.945,4.645s3.917-1.651,3.917-4.645V361.323h4.113Zm8.163,8H176.1V363.282l-1.343-1.958h4.981l8.2,11.808h.028V361.323h4.113v19.308h-3.749l-8.059-11.753h-.056Zm22.126,0h-6.213V361.323h6.213c6.632,0,10.494,3.5,10.494,9.486C212.835,376.993,208.973,380.631,202.341,380.631Zm.224-15.642H200.3v11.893h2.267c3.89,0,6.017-2.239,6.017-6.072,0-3.666-2.155-5.82-6.017-5.82ZM36.326,352.657H30.115V333.349h6.212c6.632,0,10.494,3.5,10.494,9.486C46.82,349.019,42.958,352.657,36.326,352.657Zm.224-15.642H34.284v11.892h2.266c3.89,0,6.016-2.238,6.016-6.072,0-3.666-2.155-5.82-6.016-5.82Zm25.716-.056H54.039v4.2H61.2v3.47H54.039v4.338h8.507v3.694H49.87V333.349h12.4v3.609Zm19.415,7.7c0,5.457-2.882,8.423-8.115,8.423-5.121,0-8.031-2.938-8.031-8.423v-11.3h4.17v11.333c0,2.994,1.455,4.645,3.945,4.645s3.918-1.651,3.918-4.645V333.349h4.113ZM99.4,337.015H93.89v15.642H89.721V337.015H84.237v-3.665H99.4Zm12,1.4a4.111,4.111,0,0,0-3.414-1.874c-1.371,0-2.238.643-2.238,1.706-.028,1.4.923,1.9,3.441,2.966,3.134,1.343,4.841,2.631,4.841,5.961,0,3.3-2.518,5.9-6.911,5.9a7.419,7.419,0,0,1-6.464-3.274l2.518-2.742a4.655,4.655,0,0,0,3.861,2.323c1.763,0,2.659-.755,2.659-1.9,0-1.371-.867-2.126-3.022-2.939-2.91-1.175-5.149-2.63-5.149-6.1,0-3.19,2.547-5.513,6.3-5.513a7,7,0,0,1,6.072,2.91Zm19.369.532a4.885,4.885,0,0,0-4.365-2.295c-3.414,0-5.736,2.49-5.736,6.241,0,3.833,2.323,6.379,5.708,6.379a5.1,5.1,0,0,0,4.673-2.295l2.827,2.462c-1.511,2.127-3.75,3.638-7.555,3.638-5.961,0-9.906-3.945-9.906-10.13a9.571,9.571,0,0,1,9.989-10.018,8.4,8.4,0,0,1,7.359,3.47Zm21.313,13.712h-4.169v-7.864h-7.472v7.864h-4.169V333.349h4.169v7.722h7.472v-7.722h4.169Zm16.444-15.7H160.3v4.2h7.163v3.47H160.3v4.338h8.507v3.694H156.134V333.349h12.4Zm3.27,15.7V333.349h6.072c5.065,0,7.948,2.238,7.948,6.379a5.833,5.833,0,0,1-4.057,5.792l5.037,7.136h-5.065l-4.337-6.52H175.97v6.52Zm6.156-15.67H175.97v5.876h1.987c2.406,0,3.666-1.091,3.666-3.022,0-1.791-1.288-2.854-3.665-2.854Z" transform="translate(1531.165 -1143.928)"/>
  </g>
</svg>
