<svg xmlns="http://www.w3.org/2000/svg" width="298.336" height="34.026" viewBox="0 0 298.336 34.026">
  <g id="LOGO" transform="translate(-20.32 -63.025)">
    <g id="Group_1" data-name="Group 1" transform="translate(20.32 63.176)">
      <path id="Path_1" data-name="Path 1" d="M20.32,86.746s5.765-4.795,12.031-5.339,24.421,5.958,24.421,5.958l-.016.02L73.589,92.36s-5.734,4.795-12,5.339-24.421-5.959-24.421-5.959l.016-.019Z" transform="translate(-20.32 -63.857)" fill="#e1dfe0"/>
      <path id="Path_2" data-name="Path 2" d="M20.32,86.569s3.968-6.281,9.8-8.632,25.1-1.44,25.1-1.44l-.01.024,17.552-.164s-4.082,6.261-9.916,8.613-25.1,1.441-25.1,1.441l.01-.024Z" transform="translate(-20.32 -63.679)" fill="#b5ada8"/>
      <path id="Path_3" data-name="Path 3" d="M20.32,86.109S22.8,79.05,27.873,75.325s23.956-7.619,23.956-7.619l0,.026L68.788,63.22s-2.4,7.079-7.469,10.8-23.956,7.619-23.956,7.619l0-.026Z" transform="translate(-20.32 -63.22)" fill="#003653"/>
    </g>
    <g id="Group_2" data-name="Group 2" transform="translate(94.247 63.025)">
      <path id="Path_4" data-name="Path 4" d="M110.336,83.126c0,2.969-2.538,4.6-6.559,4.6H91.307V70.965h11.512c4.023,0,6.559,1.58,6.559,4.285a3.634,3.634,0,0,1-3.734,3.71C108.276,79.1,110.336,80.469,110.336,83.126ZM95.088,77.764H102.2c2.083,0,3.376-.336,3.376-1.891,0-1.532-1.293-1.891-3.376-1.891H95.088ZM106.411,82.7c0-1.7-1.269-2.011-3.423-2.011h-7.9v4.021h7.9C105.142,84.706,106.411,84.37,106.411,82.7Z" transform="translate(-91.307 -69.882)" fill="#003653"/>
      <path id="Path_5" data-name="Path 5" d="M104.362,79.966c0-4.405,3.207-7.11,8.425-7.11,5.2,0,8.426,2.705,8.426,7.11,0,4.379-3.23,7.107-8.426,7.107C107.569,87.073,104.362,84.346,104.362,79.966Zm13.285,0c0-2.754-2.06-4.094-4.861-4.094-2.776,0-4.835,1.34-4.835,4.094,0,2.728,2.058,4.092,4.835,4.092C115.587,84.059,117.647,82.694,117.647,79.966Z" transform="translate(-83.203 -68.708)" fill="#003653"/>
      <path id="Path_6" data-name="Path 6" d="M131.945,80.453v7.635h-3.71v-7.4a2.991,2.991,0,0,0-3.35-3.329,5.141,5.141,0,0,0-4.668,2.8v7.924h-3.71V70.375h3.71v6.846a6.552,6.552,0,0,1,5.744-2.8C129.911,74.42,131.945,76.934,131.945,80.453Z" transform="translate(-75.664 -70.249)" fill="#003653"/>
      <path id="Path_7" data-name="Path 7" d="M128.238,88.088V70.375h3.712V88.088Z" transform="translate(-68.382 -70.249)" fill="#003653"/>
      <path id="Path_8" data-name="Path 8" d="M152.764,87.905l-1.245-.934a11.842,11.842,0,0,1-5.985,1.412c-5.05,0-8.785-2.441-8.785-5.65,0-1.89,1.269-3.494,3.47-4.379a4.005,4.005,0,0,1-1.483-3.016c0-2.681,2.536-4.668,6.655-4.668,4.357,0,6.653,2.083,7.947,4.381L150.2,76.32c-1.292-2.156-2.752-2.945-4.715-2.945-1.891,0-3.088.718-3.088,1.938,0,1.078.982,1.749,2.848,3.183l6.032,4.645a6.78,6.78,0,0,0,.909-3.232h3.4a8.775,8.775,0,0,1-1.818,5.122l3.733,2.874Zm-3.783-2.848-6.942-5.195a2.94,2.94,0,0,0-1.485,2.536c0,2.13,2.3,3.255,5.172,3.255A8.143,8.143,0,0,0,148.981,85.057Z" transform="translate(-63.098 -70.065)" fill="#003653"/>
      <path id="Path_9" data-name="Path 9" d="M223.016,88.009V70.3h3.712V88.009Z" transform="translate(-9.547 -70.297)" fill="#003653"/>
      <path id="Path_10" data-name="Path 10" d="M227.309,88.009V70.3h3.982V88.009Z" transform="translate(-6.882 -70.297)" fill="#003653"/>
      <path id="Path_11" data-name="Path 11" d="M174.647,71.2V87.449H171.3L159.279,75.7V87.449h-3.71V71.2h4.07l11.3,11.144V71.2Z" transform="translate(-51.416 -69.738)" fill="#003653"/>
      <path id="Path_12" data-name="Path 12" d="M184.84,79.1v4.857a4.88,4.88,0,0,0,.6,2.514h-3.806a3.265,3.265,0,0,1-.48-1.556v-.023a7.451,7.451,0,0,1-5.48,2.057c-2.825,0-6.488-1.125-6.488-4.548s3.663-4.522,6.488-4.522a7.355,7.355,0,0,1,5.48,2.057v-.861c0-2.443-1.6-3.494-4.762-3.494a9.322,9.322,0,0,0-4.812,1.1l-1.1-2.441a15.671,15.671,0,0,1,6.656-1.46C181.944,72.777,184.84,75,184.84,79.1Zm-3.614,3.135c-.981-1.556-2.943-1.938-4.643-1.938-1.533,0-3.783.36-3.783,2.105s2.25,2.131,3.783,2.131c1.7,0,3.663-.407,4.643-1.963Z" transform="translate(-42.963 -68.757)" fill="#003653"/>
      <path id="Path_13" data-name="Path 13" d="M196.586,80.373v7.635h-3.708v-7.4a2.991,2.991,0,0,0-3.352-3.327,5.14,5.14,0,0,0-4.668,2.8v7.922h-3.712V70.3h3.712v6.846a6.548,6.548,0,0,1,5.744-2.8C194.552,74.341,196.586,76.855,196.586,80.373Z" transform="translate(-35.538 -70.297)" fill="#003653"/>
      <path id="Path_14" data-name="Path 14" d="M207.648,82.505c0,2.536-2.417,4.5-7.229,4.5A13.028,13.028,0,0,1,192.21,84.4l1.794-2.2a10.1,10.1,0,0,0,6.512,1.985c2.105,0,3.708-.383,3.708-1.412,0-.956-1.46-1.316-4.261-1.509-3.708-.263-7.253-1.172-7.253-4.115,0-2.562,2.394-4.381,7.374-4.381a13.643,13.643,0,0,1,6.53,1.692l-1.266,2.616a9.6,9.6,0,0,0-5.457-1.483c-1.532,0-3.71.238-3.71,1.316,0,1,1.8,1.172,4.284,1.316C204.609,78.46,207.648,79.68,207.648,82.505Z" transform="translate(-28.67 -68.766)" fill="#003653"/>
      <path id="Path_15" data-name="Path 15" d="M214.423,86.684a8.093,8.093,0,0,1-4.332,1.267c-2.778,0-5.066-1.507-5.066-4.475V77.038h-2.442V74.261h2.442V71.2h3.71v3.063H214.3v2.776h-5.569V82.83c0,1.34,1.141,2.034,2.457,2.034a5.677,5.677,0,0,0,2.467-.694Z" transform="translate(-22.232 -69.738)" fill="#003653"/>
      <path id="Path_16" data-name="Path 16" d="M211.01,79.887c0-4.405,3.208-7.11,8.426-7.11,5.193,0,8.425,2.705,8.425,7.11,0,4.379-3.232,7.109-8.425,7.109C214.217,87,211.01,84.267,211.01,79.887Zm13.284,0c0-2.752-2.057-4.094-4.857-4.094-2.778,0-4.836,1.342-4.836,4.094,0,2.729,2.058,4.094,4.836,4.094C222.237,83.981,224.294,82.617,224.294,79.887Z" transform="translate(-17 -68.757)" fill="#003653"/>
    </g>
    <g id="Group_3" data-name="Group 3" transform="translate(94.342 87.683)">
      <path id="Path_17" data-name="Path 17" d="M93.6,87.409H91.366V86.347H97.1v1.062H94.859V93.1H93.6Z" transform="translate(-91.366 -84.992)" fill="#6a6665"/>
      <path id="Path_18" data-name="Path 18" d="M100.781,93.1,99.4,91.123a1.981,1.981,0,0,1-.259.011H97.615V93.1H96.361V86.347h2.78c1.775,0,2.875.908,2.875,2.4a2.159,2.159,0,0,1-1.438,2.131l1.553,2.22Zm-1.7-5.694H97.615V90.1h1.467c1.1,0,1.669-.5,1.669-1.352S100.183,87.409,99.082,87.409Z" transform="translate(-88.265 -84.992)" fill="#6a6665"/>
      <path id="Path_19" data-name="Path 19" d="M106.336,91.538h-3.378l-.666,1.564H101l3.041-6.755h1.235l3.049,6.755h-1.311Zm-.415-.984L104.647,87.6l-1.264,2.953Z" transform="translate(-85.386 -84.992)" fill="#6a6665"/>
      <path id="Path_20" data-name="Path 20" d="M106.839,86.347h1.254V93.1h-1.254Z" transform="translate(-81.761 -84.992)" fill="#6a6665"/>
      <path id="Path_21" data-name="Path 21" d="M115.7,86.347V93.1h-1.032l-3.726-4.574V93.1H109.7V86.347h1.032l3.725,4.574V86.347Z" transform="translate(-79.987 -84.992)" fill="#6a6665"/>
      <path id="Path_22" data-name="Path 22" d="M115.479,86.347h1.254V93.1h-1.254Z" transform="translate(-76.398 -84.992)" fill="#6a6665"/>
      <path id="Path_23" data-name="Path 23" d="M124.339,86.347V93.1h-1.032l-3.725-4.574V93.1h-1.245V86.347h1.032l3.725,4.574V86.347Z" transform="translate(-74.623 -84.992)" fill="#6a6665"/>
      <path id="Path_24" data-name="Path 24" d="M128.831,89.684h1.186v2.694a4.29,4.29,0,0,1-2.643.857,3.478,3.478,0,1,1,.019-6.948,3.494,3.494,0,0,1,2.712,1.1l-.793.773a2.5,2.5,0,0,0-1.861-.773,2.376,2.376,0,1,0-.01,4.749,2.738,2.738,0,0,0,1.389-.347Z" transform="translate(-71.271 -85.029)" fill="#6a6665"/>
      <path id="Path_25" data-name="Path 25" d="M132.275,85.511h.84v9.033h-.84Z" transform="translate(-65.971 -85.511)" fill="#6a6665"/>
      <path id="Path_26" data-name="Path 26" d="M136.923,89.762a3.654,3.654,0,0,1,6.292-2.345l-.81.762a2.373,2.373,0,0,0-1.8-.791,2.375,2.375,0,1,0,0,4.749,2.345,2.345,0,0,0,1.8-.8l.81.773a3.655,3.655,0,0,1-6.292-2.345Z" transform="translate(-63.086 -85.029)" fill="#6a6665"/>
      <path id="Path_27" data-name="Path 27" d="M142.038,89.762a3.641,3.641,0,1,1,3.637,3.473A3.458,3.458,0,0,1,142.038,89.762Zm6.011,0a2.374,2.374,0,1,0-2.374,2.374A2.3,2.3,0,0,0,148.049,89.762Z" transform="translate(-59.911 -85.029)" fill="#6a6665"/>
      <path id="Path_28" data-name="Path 28" d="M154.225,86.347V93.1h-1.032l-3.723-4.574V93.1h-1.246V86.347h1.034l3.723,4.574V86.347Z" transform="translate(-56.071 -84.992)" fill="#6a6665"/>
      <path id="Path_29" data-name="Path 29" d="M153.654,92.425l.434-.974a3.749,3.749,0,0,0,2.229.742c1.052,0,1.5-.376,1.5-.877,0-1.459-4.015-.5-4.015-3.011,0-1.091.869-2.018,2.721-2.018a4.263,4.263,0,0,1,2.25.6l-.4.974a3.753,3.753,0,0,0-1.862-.53c-1.041,0-1.467.4-1.467.916,0,1.438,4,.5,4,2.982,0,1.081-.878,2.007-2.731,2.007A4.35,4.35,0,0,1,153.654,92.425Z" transform="translate(-52.7 -85.029)" fill="#6a6665"/>
      <path id="Path_30" data-name="Path 30" d="M158.59,90.159V86.347h1.253V90.11c0,1.389.629,1.989,1.718,1.989s1.708-.6,1.708-1.989V86.347H164.5v3.812a2.958,2.958,0,1,1-5.914,0Z" transform="translate(-49.636 -84.992)" fill="#6a6665"/>
      <path id="Path_31" data-name="Path 31" d="M164.2,86.347h1.254v5.694h3.533V93.1H164.2Z" transform="translate(-46.155 -84.992)" fill="#6a6665"/>
      <path id="Path_32" data-name="Path 32" d="M169.954,87.409h-2.238V86.347h5.733v1.062H171.21V93.1h-1.256Z" transform="translate(-43.971 -84.992)" fill="#6a6665"/>
      <path id="Path_33" data-name="Path 33" d="M172.711,86.347h1.256V93.1h-1.256Z" transform="translate(-40.87 -84.992)" fill="#6a6665"/>
      <path id="Path_34" data-name="Path 34" d="M181.488,86.347V93.1h-1.032l-3.725-4.574V93.1h-1.245V86.347h1.032l3.725,4.574V86.347Z" transform="translate(-39.148 -84.992)" fill="#6a6665"/>
      <path id="Path_35" data-name="Path 35" d="M185.814,89.684H187v2.694a4.288,4.288,0,0,1-2.645.857,3.478,3.478,0,1,1,.021-6.948,3.5,3.5,0,0,1,2.712,1.1l-.791.773a2.507,2.507,0,0,0-1.862-.773,2.375,2.375,0,1,0-.011,4.749,2.744,2.744,0,0,0,1.391-.347Z" transform="translate(-35.9 -85.029)" fill="#6a6665"/>
    </g>
    <line id="Line_1" data-name="Line 1" y2="33.875" transform="translate(80.566 63.176)" fill="none" stroke="#6a6665" stroke-miterlimit="10" stroke-width="0.3"/>
  </g>
</svg>
